<svg width="60" height="55" viewBox="0 0 60 55" fill="none" xmlns="http://www.w3.org/2000/svg">
<path d="M59.1935 4.46005L44.2838 26.3287L29.5968 47.8654L0 4.46005H59.1935ZM29.7741 8.46701H7.5775L18.677 24.694L29.7741 40.9194L40.8711 24.694L51.9715 8.46701H29.7741Z" fill="white"/>
<path fill-rule="evenodd" clip-rule="evenodd" d="M37.64 8.46703C38.2961 9.51688 39.2178 10.3749 40.3118 10.9543C41.6154 11.6153 43.0309 12.0272 44.4856 12.1688H44.5002C45.3926 12.2027 46.282 12.0464 47.1094 11.7103C47.9367 11.3742 48.6831 10.8658 49.299 10.2191C49.7335 9.78785 50.1021 9.29487 50.3928 8.75608C50.6669 8.25515 50.8387 7.7047 50.898 7.13678C50.9471 6.66184 50.8869 6.18198 50.722 5.73389C50.5572 5.2858 50.2919 4.88138 49.9467 4.55156C49.6955 4.28969 49.3652 4.11759 49.0067 4.06172C48.6885 4.02863 48.3701 4.12328 48.1217 4.32486L48.1663 4.45602H44.1261L44.288 4.32486C44.3546 4.04741 44.4527 3.77848 44.5803 3.52331C44.7245 3.23601 44.91 2.9714 45.1309 2.73795C45.1502 2.71723 45.1623 2.69081 45.1654 2.66264C45.1685 2.63448 45.1623 2.60607 45.1479 2.58168L45.1236 2.5412C45.1037 2.51709 45.0901 2.48842 45.084 2.45775C45.0779 2.42708 45.0796 2.39538 45.0888 2.36551C45.2436 2.1403 45.4469 1.9527 45.6839 1.81656C46.0962 1.53201 46.532 1.28309 46.9866 1.0725C47.4659 0.87818 47.6635 1.05468 48.0051 1.36154L48.0262 1.37773C48.0447 1.38881 48.0657 1.39526 48.0872 1.39653C48.1088 1.3978 48.1304 1.39385 48.1501 1.38502C48.3143 1.30666 48.4824 1.23667 48.6537 1.17532C48.8193 1.11541 48.9879 1.06434 49.1589 1.0223C49.181 1.01621 49.2013 1.00481 49.218 0.989102C49.3412 0.894584 49.4936 0.846174 49.6488 0.852271C49.9206 0.847933 50.1915 0.88395 50.4527 0.959145C50.4693 0.963833 50.4867 0.965206 50.5038 0.963185C50.5209 0.961164 50.5375 0.955788 50.5525 0.947367C50.5675 0.938945 50.5808 0.927642 50.5914 0.914103C50.6021 0.900564 50.61 0.885056 50.6147 0.868464L50.6381 0.810979C50.6674 0.762914 50.686 0.709134 50.6927 0.653265C50.6994 0.597397 50.694 0.540741 50.677 0.487119V0.481451C50.6587 0.435954 50.6572 0.385416 50.6729 0.338953C50.7002 0.297369 50.7359 0.262019 50.7777 0.235227C50.8196 0.208434 50.8667 0.190805 50.9159 0.1835H50.9199C51.1076 0.139463 51.301 0.125255 51.4931 0.141398C52.2908 0.192536 53.0536 0.486667 53.6792 0.984244C54.003 1.26033 53.9852 1.38421 53.9002 1.48461L53.8038 1.585C53.7006 1.65441 53.6245 1.75738 53.5885 1.87646C53.5525 1.99554 53.5588 2.12341 53.6063 2.23839L53.6355 2.30478C53.748 2.50601 53.912 2.67367 54.1107 2.79057C54.2083 2.85895 54.32 2.90468 54.4375 2.92443C54.555 2.94418 54.6754 2.93745 54.79 2.90473L55.0993 2.75495C55.2512 2.73634 55.4053 2.76051 55.5442 2.82473C55.6831 2.88896 55.8013 2.9907 55.8855 3.11848C56.2289 3.53612 56.4399 4.0466 56.4919 4.58476C56.5242 4.73124 56.5146 4.88387 56.464 5.0251C56.4135 5.16633 56.3241 5.29041 56.2061 5.38307C56.1772 5.39949 56.1556 5.4262 56.1455 5.45787C56.1355 5.48954 56.1377 5.52383 56.1519 5.55391C56.2792 5.84246 56.3919 6.13728 56.4895 6.43724C56.5562 6.61512 56.6035 6.79972 56.6304 6.9878C56.6306 7.02252 56.6445 7.05576 56.669 7.08031C56.6936 7.10486 56.7268 7.11875 56.7615 7.11896H56.785C56.9026 7.10328 57.0223 7.1202 57.131 7.16789C57.2396 7.21558 57.333 7.2922 57.4011 7.38939C57.5342 7.59385 57.6145 7.82805 57.6351 8.07111C57.668 8.37085 57.6579 8.67375 57.6052 8.97063C57.5833 9.30216 57.4823 9.62361 57.3105 9.90803C57.1388 10.1925 56.9014 10.4316 56.6182 10.6053C56.5948 10.6135 56.5743 10.6282 56.5591 10.6477C56.5439 10.6673 56.5346 10.6908 56.5324 10.7154C56.4936 11.0717 56.4238 11.4239 56.3235 11.768C56.2263 12.1208 56.0995 12.4647 55.9446 12.7962C55.9375 12.8127 55.9339 12.8305 55.9339 12.8485C55.9339 12.8664 55.9375 12.8842 55.9446 12.9007L55.9535 12.9233C55.9965 13.2085 55.9739 13.4997 55.8875 13.7748C55.8011 14.0499 55.6531 14.3017 55.4547 14.5111C55.0938 15.0267 54.6143 15.4479 54.0565 15.7393L54.0144 15.7563C53.9885 15.7667 53.9667 15.7852 53.952 15.8089C53.8185 16.0065 53.6654 16.2089 53.5051 16.4057C53.3197 16.6332 53.1213 16.8582 52.9286 17.0655C52.912 17.0831 52.9006 17.1051 52.8959 17.1289C52.8912 17.1526 52.8933 17.1773 52.9019 17.1999C52.9547 17.3727 52.968 17.5552 52.941 17.7338C52.9139 17.9125 52.8472 18.0828 52.7456 18.2322C52.5159 18.6092 52.2164 18.939 51.8631 19.2038C51.4767 19.5046 51.0482 19.7469 50.5912 19.9228H50.5855C50.2732 20.0718 49.9326 20.1524 49.5865 20.1591C49.2405 20.1658 48.8971 20.0985 48.5792 19.9616C48.5614 19.952 48.5418 19.9464 48.5217 19.9453C48.5015 19.9441 48.4813 19.9475 48.4626 19.9552L47.929 20.1616C47.8968 20.1743 47.8708 20.1992 47.8569 20.2309C47.8429 20.2626 47.8421 20.2985 47.8546 20.3308L47.8586 20.3414C48.0092 20.645 47.8457 20.9543 47.5064 21.2247C47.1402 21.4946 46.729 21.6975 46.2919 21.8238C45.8031 21.978 45.2952 22.0636 44.7828 22.0781C43.9342 22.0943 43.2064 21.8651 43.0703 21.2619C43.0616 21.2282 43.0401 21.1992 43.0104 21.181C42.5736 20.9742 42.1182 20.8094 41.6502 20.6887C41.0755 20.5135 40.4903 20.3748 39.8981 20.2734H39.8625C39.2886 20.329 38.7098 20.3089 38.1412 20.2134C37.667 20.1417 37.2104 19.9822 36.7947 19.743C36.7013 19.6844 36.6111 19.6209 36.5243 19.5528C36.5011 19.5328 36.4715 19.5216 36.4409 19.5211C36.4102 19.5207 36.3804 19.531 36.3565 19.5502C36.3327 19.5694 36.3163 19.5964 36.3103 19.6265C36.3042 19.6565 36.3089 19.6877 36.3235 19.7147C36.3793 19.8228 36.4199 19.938 36.4442 20.0572C36.4613 20.1411 36.4588 20.2278 36.4369 20.3106C36.4039 20.4263 36.363 20.5397 36.3146 20.6498C36.2598 20.7702 36.1976 20.887 36.1284 20.9996C36.1108 21.0297 36.1059 21.0656 36.1145 21.0993C36.1231 21.1331 36.1447 21.1622 36.1745 21.1802C36.5783 21.4123 36.9636 21.6754 37.3267 21.9671C37.7267 22.2854 38.0782 22.6601 38.3703 23.0796C38.3801 23.0939 38.3925 23.1061 38.407 23.1156C38.4215 23.125 38.4377 23.1315 38.4547 23.1347C38.4717 23.1378 38.4892 23.1376 38.5061 23.134C38.523 23.1304 38.539 23.1234 38.5533 23.1136C38.746 22.9697 38.9621 22.8601 39.1921 22.7897H39.1978C39.2921 22.7612 39.3927 22.7608 39.4872 22.7888C39.5817 22.8167 39.666 22.8716 39.7297 22.9468C39.9929 23.2578 40.2363 23.585 40.4584 23.9265L40.4625 23.9322C40.6661 24.2287 40.8446 24.5418 40.996 24.8681V24.8754C41.2187 25.4486 40.7102 25.6794 40.2406 25.8939C40.1038 25.9563 39.9686 26.0178 39.8487 26.0866C39.8189 26.1042 39.7971 26.1328 39.7882 26.1663C39.7793 26.1998 39.7838 26.2354 39.801 26.2656L39.9175 26.4413C40.1629 26.8606 40.3197 27.3257 40.3783 27.808C40.4254 28.0153 40.4179 28.2314 40.3566 28.435C40.2953 28.6387 40.1823 28.8229 40.0285 28.9698L39.9645 29.0127C39.9487 29.0221 39.9351 29.0347 39.9246 29.0498C39.9141 29.0649 39.907 29.0821 39.9038 29.1002C39.8677 29.2846 39.8209 29.4668 39.7637 29.6459C39.7062 29.8329 39.6406 30.0159 39.5775 30.1883C39.5716 30.2046 39.5691 30.2218 39.57 30.2391C39.571 30.2563 39.5753 30.2732 39.5828 30.2888C39.5904 30.3043 39.601 30.3182 39.614 30.3296C39.627 30.341 39.6421 30.3497 39.6585 30.3551L39.7621 30.381C40.0479 30.4498 40.4617 30.551 40.5758 30.7599C40.6882 31.1927 40.6767 31.6483 40.5426 32.0748C40.3888 32.8139 40.1489 33.5324 39.8277 34.2155L39.822 34.2252C39.4423 34.8989 38.7986 34.7993 38.1493 34.6989L37.9129 34.6633C37.879 34.6581 37.8445 34.6664 37.8166 34.6863C37.7888 34.7063 37.7698 34.7364 37.7639 34.7701C37.7234 34.9175 37.674 35.0738 37.6206 35.2308L37.4497 35.6996C37.4412 35.7217 37.4389 35.7458 37.4429 35.7691C37.4469 35.7925 37.4571 35.8143 37.4724 35.8324C37.6363 36.0206 37.8195 36.191 38.0189 36.3409C38.3776 36.6234 38.4926 36.7165 37.7704 37.7302C37.479 38.1877 37.1293 38.6052 36.73 38.9722C36.5886 39.1038 36.4098 39.1882 36.2183 39.2137C36.0269 39.2393 35.8322 39.2047 35.6612 39.1147C35.6338 39.1017 35.6027 39.0985 35.5732 39.1058C35.5437 39.113 35.5176 39.1302 35.4993 39.1544L34.9366 39.8912C34.926 39.9047 34.9183 39.9203 34.9138 39.9368C34.9093 39.9534 34.9082 39.9707 34.9104 39.9878C34.9127 40.0048 34.9183 40.0212 34.9269 40.036C34.9356 40.0509 34.9472 40.0638 34.9609 40.0742L34.9763 40.0839C35.9724 40.6458 36.753 41.5235 37.1947 42.5784C37.5201 43.439 37.5509 44.3833 37.2821 45.2632V45.2673C36.9989 46.1858 36.4767 47.0126 35.7689 47.663C34.6955 48.6548 33.3212 49.259 31.8648 49.3795L31.5887 49.3973C30.1703 49.4546 28.7711 49.0541 27.5979 48.2549C27.0161 47.8747 26.5266 47.3695 26.1651 46.776C25.8036 46.1825 25.5791 45.5157 25.5082 44.8244L25.4936 44.6139C25.4928 44.5965 25.4885 44.5794 25.4811 44.5636C25.4736 44.5479 25.4631 44.5338 25.4502 44.5221C25.4372 44.5104 25.4221 44.5014 25.4057 44.4957C25.3892 44.4899 25.3718 44.4874 25.3544 44.4884C22.6825 44.6649 20.6584 45.3944 19.3176 46.7732C17.9768 48.152 17.3267 50.1737 17.4085 52.933C17.4307 53.3552 17.2852 53.769 17.0037 54.0843C16.8667 54.233 16.6876 54.3364 16.4903 54.3807C16.2721 54.4216 16.0466 54.3898 15.8483 54.29C15.1802 53.8715 14.679 53.2329 14.4314 52.4845L14.4257 52.474C13.9242 51.5378 13.6612 50.4925 13.6598 49.4305C13.6564 48.2273 13.8863 47.0348 14.3367 45.919C14.3494 45.8867 14.3488 45.8506 14.335 45.8188C14.3212 45.7869 14.2953 45.7618 14.263 45.749H14.2525C14.1614 45.708 14.0879 45.636 14.0451 45.5458C14.0022 45.4557 13.9928 45.3532 14.0185 45.2567C14.0593 44.9888 14.155 44.7322 14.2994 44.5029V44.4957C14.4549 44.2332 14.6527 43.9982 14.8848 43.8002C15.2386 43.5046 15.6378 43.3646 15.943 43.5945C15.9702 43.6148 16.0042 43.6238 16.0378 43.6196C16.0715 43.6154 16.1022 43.5982 16.1235 43.5718C16.3602 43.286 16.6244 43.0241 16.9121 42.7897C17.2344 42.5206 17.5772 42.277 17.9372 42.061C17.9582 42.0487 17.9753 42.0308 17.9866 42.0092C17.9979 41.9877 18.0029 41.9634 18.0011 41.9392C17.9994 41.9149 17.9908 41.8916 17.9765 41.872C17.9622 41.8523 17.9427 41.837 17.9201 41.8279L17.8392 41.7849L17.7898 41.7412C17.683 41.6068 17.7372 41.4319 17.891 41.2506C18.1478 40.9815 18.4519 40.762 18.7881 40.6029C19.1682 40.4009 19.5718 40.2464 19.9896 40.143C20.5119 40.0264 20.9491 40.0361 21.0422 40.2741C21.0485 40.2902 21.058 40.3049 21.07 40.3173C21.082 40.3297 21.0964 40.3397 21.1123 40.3465C21.1282 40.3534 21.1452 40.357 21.1625 40.3572C21.1798 40.3574 21.197 40.3543 21.213 40.3478C21.5952 40.211 22.0227 40.0806 22.4275 39.9705C22.8663 39.8515 23.2744 39.76 23.5667 39.7114C23.6007 39.7055 23.6309 39.6865 23.651 39.6585C23.6712 39.6305 23.6795 39.5957 23.6744 39.5616C23.6713 39.542 23.6635 39.5234 23.6517 39.5074C23.6216 39.4749 23.6035 39.4331 23.6004 39.3889C23.5973 39.3448 23.6094 39.3009 23.6347 39.2645C23.851 39.0681 24.1222 38.9426 24.4119 38.905C24.856 38.8096 25.3091 38.7626 25.7632 38.765C26.6628 38.765 27.5153 38.9342 27.5761 39.3042C27.5807 39.3307 27.5934 39.3552 27.6124 39.3743C27.6315 39.3934 27.6559 39.4061 27.6824 39.4108C27.709 39.4155 27.7364 39.4119 27.7608 39.4005C27.7852 39.3891 27.8055 39.3705 27.8189 39.3471C28.9446 37.5239 29.6883 35.4911 30.005 33.3719C30.1452 32.3217 30.0155 31.2531 29.6281 30.267C29.2406 29.2809 28.6082 28.4098 27.7906 27.7359C27.7644 27.7135 27.7304 27.7022 27.696 27.7047C27.6616 27.7071 27.6296 27.723 27.6068 27.7489L27.5979 27.7594C27.4245 28.014 27.2353 28.2573 27.0312 28.4881C26.4831 29.1177 25.8108 29.6273 25.0565 29.9848C24.3022 30.3423 23.4821 30.5401 22.6477 30.5656C20.9621 30.5943 19.3114 30.0837 17.9364 29.1083C17.6225 28.892 17.3224 28.6565 17.0377 28.403C16.1681 27.674 15.3969 26.8352 14.7431 25.9077C14.1056 24.9391 13.5933 23.8936 13.2186 22.7962V22.7906C12.6291 21.1255 12.396 19.3551 12.5344 17.5942C12.6867 15.6468 13.1737 13.7402 13.9739 11.9582V11.9526C14.4533 10.9753 14.9893 9.99727 15.5738 9.04431C15.6904 8.85377 15.8092 8.66486 15.9301 8.47756H37.64V8.46703ZM31.5814 17.3732C31.1863 17.1878 32.5676 16.2632 31.4575 15.6535C30.8802 15.3631 30.2778 15.1254 29.6577 14.9434L29.5468 14.9078L29.5889 14.7985C29.71 14.4908 29.8645 14.1973 30.0495 13.9233L30.1305 13.8026L30.2268 13.9119C31.4508 15.3023 32.8211 16.5567 34.314 17.6533L34.4581 17.7578L33.2792 18.3844L33.2233 18.3448C32.7028 17.9793 32.155 17.6545 31.5846 17.3732H31.5814Z" fill="#00E980"/>
<path d="M55.2893 7.05581C55.3403 6.83806 55.3332 6.61072 55.2687 6.39657C55.2042 6.18243 55.0845 5.989 54.9217 5.83567L55.2893 7.05581ZM42.0693 19.675C43.2245 19.5963 44.36 19.3351 45.4334 18.901L42.0693 19.675ZM35.8836 17.6509C35.7942 17.5628 35.6901 17.491 35.5759 17.4388L35.8836 17.6509ZM35.716 17.5011C35.0406 16.9095 34.32 16.3716 33.5607 15.8923L35.716 17.5011ZM49.4056 16.1547C49.6096 15.962 49.8225 15.7628 50.0152 15.5588L49.4088 16.1563L49.4056 16.1547ZM49.3683 15.9215L49.8711 15.4559L49.7756 15.375L49.3683 15.9215ZM49.2752 15.7045L49.6954 15.3053L49.5958 15.2122L49.272 15.7053L49.2752 15.7045ZM49.1351 15.5256L49.5278 15.1434L49.5019 15.1191L49.1351 15.5256ZM48.9611 15.3798L49.3659 14.975L49.2736 14.8778L48.9611 15.3798ZM48.757 15.2624L49.2056 14.8066L49.1424 14.7467L48.757 15.2624ZM48.5077 15.1661L49.0639 14.669L48.9829 14.5597L48.506 15.1661H48.5077ZM48.2437 15.1021C48.4866 14.8932 48.7141 14.6827 48.9441 14.4625L48.2437 15.1021ZM47.9199 14.8827L47.6988 15.0657C47.9337 15.0155 48.1498 14.9001 48.3223 14.7329L47.9199 14.8827ZM52.4126 15.5021C52.0752 15.8901 51.7101 16.2532 51.3204 16.5886L52.4126 15.5021ZM52.9421 15.6114L52.785 15.4495C52.4747 15.8255 52.1384 16.1794 51.7786 16.5085L52.9421 15.609V15.6114ZM52.968 15.6373C52.7095 15.9528 52.4298 16.2504 52.1308 16.5279L52.283 16.5587L52.968 15.6405V15.6373ZM53.1688 15.7992C52.9352 16.0815 52.6837 16.3484 52.4158 16.5984L53.1688 15.7992ZM47.0333 19.6613C47.4202 19.6325 47.7961 19.5192 48.1344 19.3293L47.0333 19.6613ZM48.1668 19.1479C47.6382 19.2381 47.1235 19.3957 46.635 19.6167L46.8673 19.6313L48.1668 19.1479ZM53.0441 11.8562C53.2563 11.5484 53.4509 11.2289 53.6271 10.8992H53.6092L53.0425 11.8587L53.0441 11.8562ZM52.7284 11.8085H52.7591C52.9805 11.494 53.182 11.166 53.3623 10.8264L53.3154 10.8061L52.7284 11.8085ZM52.479 11.755C52.7106 11.4278 52.9213 11.0863 53.1097 10.7324L52.913 10.6515L52.4798 11.7534L52.479 11.755ZM52.2061 11.6911C52.4541 11.3578 52.6727 11.0038 52.8595 10.6328L52.2061 11.6911ZM51.9527 11.5988C52.1924 11.2654 52.4088 10.9158 52.6004 10.5527L51.9527 11.5988ZM54.5882 6.80968C54.5752 6.65909 54.5549 6.51254 54.5306 6.37409L54.4384 6.44858L54.5882 6.80968ZM53.674 6.85259C53.7415 6.72898 53.7606 6.58466 53.7275 6.44777L53.6611 6.44048L53.6724 6.8534L53.674 6.85259ZM53.3834 6.44291C53.3145 6.59282 53.3002 6.76207 53.3429 6.92141L53.4238 6.90441L53.385 6.44372L53.3834 6.44291ZM53.5072 6.88579C53.5745 6.74483 53.5911 6.58497 53.5542 6.43319H53.5154L53.5065 6.88741L53.5072 6.88579ZM53.1753 6.95461C53.24 6.78166 53.2515 6.59333 53.2085 6.41376L53.1753 6.95461ZM53.1381 2.18496L52.9761 2.22058C53.1093 2.30591 53.2372 2.39919 53.3591 2.49991L53.1381 2.18496ZM52.9349 2.22544C53.1575 2.61407 53.7234 3.00513 54.04 3.46502L52.9349 2.22544ZM52.1317 2.93146C52.2062 3.1452 52.5413 3.40996 52.7122 3.59861L52.1317 2.93146ZM52.2717 2.85049C52.3349 3.05371 52.6919 3.34114 52.8571 3.52574L52.2717 2.85049ZM52.5851 2.64403C52.5913 2.8 52.6315 2.95274 52.7028 3.09159C52.7741 3.23045 52.8748 3.35208 52.998 3.44801L52.5851 2.64403ZM52.7672 2.4481C53.1282 2.68371 53.45 2.97439 53.721 3.30956L53.7898 3.33871L52.7713 2.4481H52.7672ZM52.6749 2.41733C52.6747 2.46023 52.6668 2.50275 52.6514 2.54282C52.9955 2.71204 53.3073 2.87478 53.3874 3.2788L52.6741 2.41814L52.6749 2.41733ZM52.5486 3.64881C52.417 3.40553 52.2351 3.19302 52.015 3.02538L52.5486 3.64881ZM52.3519 3.66824H52.4328C52.2739 3.47845 52.1004 3.3014 51.9138 3.13873L52.3495 3.66743L52.3519 3.66824ZM55.0237 5.46404C55.328 6.00728 55.5125 6.60941 55.5646 7.22989L55.0237 5.46404ZM55.5201 5.51019H55.478C55.6754 6.03998 55.8157 6.58934 55.8965 7.14892L55.9127 7.14488L55.5201 5.51019ZM55.6058 5.51019C55.851 6.01099 56.0054 6.5513 56.0617 7.10601H56.0674L55.6067 5.511L55.6058 5.51019ZM55.7678 7.18131C55.7469 6.61054 55.6195 6.04871 55.3921 5.52477H55.3792L55.7678 7.18131ZM55.2974 10.3713C55.151 11.0564 54.8875 11.711 54.5185 12.3064L55.2974 10.3713ZM55.5314 10.4321C55.4003 11.1103 55.15 11.76 54.7921 12.3509L54.8448 12.3744L55.5314 10.4312V10.4321ZM55.7621 10.513C55.641 11.1905 55.398 11.8404 55.0448 12.4311L55.7621 10.513ZM14.7315 46.5408C14.8383 46.3109 14.9476 46.1077 15.0456 45.9385H15.0027L14.7315 46.5408ZM26.265 40.9049L26.6924 40.9486L26.7022 40.9348L26.265 40.9049ZM26.2585 40.5575C26.4674 40.568 26.6924 40.5972 26.9005 40.6247L26.2585 40.5575ZM21.3325 41.0765C22.4423 40.7365 23.5931 40.5483 24.7533 40.517L21.3325 41.0765ZM32.143 20.8976C32.6401 21.2409 33.1955 21.5631 33.7388 21.9145L32.143 20.8976ZM28.6323 17.0728C29.8658 17.2416 31.0508 17.6646 32.1124 18.3151C33.174 18.9655 34.0889 19.8292 34.7995 20.8514L28.6323 17.0728ZM35.7014 20.9195C35.3126 20.4631 34.895 20.0321 34.4513 19.6289L35.7014 20.9195ZM34.4295 21.0101C34.1025 20.5953 33.6662 20.2801 33.1696 20.1001L33.1308 20.1438L34.4262 21.0101H34.4295ZM32.7292 20.4944C33.1692 20.8525 33.6329 21.1806 34.117 21.4765L32.7292 20.4944ZM34.2505 21.2279C33.9077 20.8143 33.4641 20.4961 32.9624 20.3041L32.8514 20.4013L34.2505 21.2296V21.2279ZM31.9544 10.3462C30.8358 11.4035 29.7971 12.5423 28.8469 13.7532L31.9544 10.3462ZM38.4899 24.8616C38.4298 24.5993 38.3181 24.3516 38.1612 24.133L38.4899 24.8616ZM37.9774 24.2285C37.8964 24.6333 38.3206 25.1669 38.5125 25.5482L38.5636 25.5337L37.9774 24.2301V24.2285ZM38.2745 25.6778C38.1405 25.2145 37.9465 24.7708 37.6972 24.358L37.4494 24.4552L38.2745 25.6778ZM37.9871 25.8243C37.8572 25.3484 37.6612 24.8929 37.4049 24.4714L37.9871 25.8243ZM37.6875 25.9352C37.5622 25.4577 37.3683 25.0009 37.1118 24.5791L37.0058 24.6163L37.6867 25.936L37.6875 25.9352ZM38.2939 29.1738C38.369 29.9519 38.3612 30.7357 38.2705 31.5121L38.2939 29.1738ZM38.57 29.1917C38.6715 30.425 38.591 31.6665 38.3312 32.8764L38.57 29.1917ZM38.8461 29.2151C38.8954 29.7548 38.9035 30.2975 38.8704 30.8385L38.8461 29.2151ZM16.282 53.7815C15.4067 52.4416 15.5193 49.7479 15.8893 48.1885L15.869 48.1796C15.5827 49.1282 15.451 50.1167 15.4788 51.1073C15.3876 50.1041 15.4573 49.0928 15.6853 48.1116L15.6683 48.1051C15.409 48.9635 15.2693 49.8536 15.2529 50.7502C15.1889 49.837 15.2664 48.9193 15.4828 48.0298L15.4351 48.0055C15.2065 48.8132 15.0824 49.647 15.0659 50.4863C15.0045 49.6523 15.0653 48.8138 15.2464 47.9974C15.181 47.9927 15.1169 47.9756 15.0578 47.9472C15.0084 48.118 14.997 48.131 15.0877 47.9626C14.7637 49.5005 14.8733 51.0983 15.4043 52.5776C15.4966 52.8083 15.7897 53.265 15.4383 52.8464C14.3412 51.5866 14.2894 49.1382 14.7809 47.5837L14.7639 47.4671C14.4278 48.3261 14.2991 49.2523 14.3883 50.1704C14.4775 51.0885 14.782 51.9726 15.2772 52.7509C15.2198 52.7123 15.1731 52.6599 15.1412 52.5986C14.5326 51.5707 14.228 50.3912 14.2628 49.1972C14.2977 48.0031 14.6704 46.8434 15.3379 45.8526L15.2335 45.8988L15.1816 46.0801C14.5627 47.0509 14.2228 48.1733 14.1993 49.3243C14.1757 50.4753 14.4694 51.6107 15.0481 52.6059C15.1841 52.8181 15.9451 53.788 16.2811 53.7807L16.282 53.7815ZM33.6894 10.4491C37.0446 13.516 41.9074 14.8795 46.2908 13.3006L45.8747 13.3484C43.8044 13.9101 41.6214 13.9068 39.5528 13.339C37.4842 12.7711 35.6055 11.6595 34.1121 10.1195C33.9696 10.2275 33.8284 10.3376 33.6886 10.4499L33.6894 10.4491ZM37.7944 8.47027C39.2833 10.7932 41.7722 11.7089 44.4975 12.0441C47.0884 12.1971 50.1763 10.1454 50.6994 7.60152C50.8103 7.07811 50.791 6.53545 50.6431 6.02127C50.4951 5.50709 50.2231 5.03715 49.8509 4.65277C49.7529 4.52878 49.6313 4.42544 49.4931 4.34872C49.355 4.272 49.203 4.22343 49.0459 4.20581C48.8889 4.18819 48.7299 4.20188 48.5781 4.24608C48.4264 4.29028 48.285 4.36411 48.1619 4.46331H47.2082C47.4141 4.20213 47.6677 3.98235 47.9555 3.81559C47.5163 3.95104 47.1079 4.17108 46.7532 4.46331H46.5102C47.094 3.92299 47.8198 3.56047 48.6025 3.41834C49.3851 3.27622 50.1921 3.36038 50.9285 3.66095C50.8033 3.54908 50.6649 3.45284 50.5164 3.37433C49.7495 3.11075 48.9228 3.07326 48.1352 3.26634C47.3475 3.45942 46.632 3.87492 46.0739 4.46331H45.9807C46.4251 3.91932 47.0024 3.49931 47.6568 3.24399C48.3111 2.98866 49.0203 2.90666 49.7157 3.00594C49.3359 2.87397 48.9431 2.78251 48.5441 2.73309C47.7487 2.78857 46.9813 3.0494 46.3168 3.49011C47.2417 2.85112 48.3515 2.53469 49.4744 2.58978C50.0033 2.67593 50.5271 2.7908 51.0435 2.93389C50.8816 2.88612 50.7334 2.82782 50.578 2.77196C50.7715 2.75252 51.2847 3.01485 51.526 2.85292C51.1992 2.79085 50.8799 2.69479 50.5731 2.5663C50.5925 2.5663 50.9431 2.66265 51.3018 2.70556L51.6547 2.72985C51.2783 2.56792 50.9455 2.44081 50.5666 2.25621C51.1333 2.5153 53.1049 2.85859 51.6297 1.93235C51.0084 1.52179 50.2879 1.28628 49.544 1.25062C49.5748 1.56315 50.0897 2.00603 50.3601 2.15257C50.0275 2.01097 49.7031 1.85067 49.3886 1.67245C49.5351 1.81333 50.0638 2.18253 50.0946 2.22787C49.7895 2.0805 49.4984 1.9057 49.225 1.70565C49.0995 1.85948 49.7917 2.20925 49.8541 2.30803L49.2736 1.98417C49.3635 2.13361 49.4694 2.27287 49.5894 2.39952C49.3351 2.3056 48.8178 2.0125 48.8655 1.67083C48.3537 1.78621 47.8622 1.97867 47.4081 2.24163C47.8203 2.14141 48.2423 2.0871 48.6663 2.0797C47.909 2.17934 47.183 2.4452 46.5404 2.85826C45.8978 3.27132 45.3544 3.82136 44.9492 4.46898H44.1299C44.2569 3.79199 44.5737 3.16502 45.0432 2.66103C44.9744 2.54525 44.9177 2.474 44.9711 2.3307C45.1331 1.90887 46.5864 1.10731 46.9426 0.964006C47.4997 0.738114 47.719 0.934859 48.0996 1.27815C48.4308 1.12002 48.7773 0.995786 49.1335 0.907331C49.421 0.619905 50.1601 0.745401 50.497 0.844178C50.5172 0.763213 50.6071 0.658768 50.5634 0.53813C50.378 0.0207638 51.305 -0.0172897 51.5601 0.00457082C52.3601 0.100899 53.1208 0.406104 53.7656 0.889519C54.6294 1.6182 53.4886 1.60849 53.7299 2.19872C53.8562 2.53149 54.4173 2.95575 54.7825 2.77519L55.0553 2.6416C56.137 2.33474 57.2049 4.98959 56.2698 5.50695C56.4892 5.98408 56.6543 6.48434 56.7621 6.99833C58.3255 6.8364 57.9425 10.2758 56.6624 10.7365C56.5772 11.4727 56.3747 12.1905 56.0625 12.8626C56.4673 13.8293 54.9557 15.5474 54.0602 15.8867C53.747 16.3382 53.4003 16.7655 53.0231 17.1651C53.6133 18.718 50.1521 21.0215 48.5158 20.0863L47.9765 20.2952C48.3239 20.9907 47.1669 21.6651 46.6949 21.857C45.8091 22.206 43.2368 22.6132 42.9413 21.304C41.9578 20.8948 40.9319 20.5961 39.8825 20.4134C38.7988 20.5516 37.6987 20.3609 36.7248 19.8661C36.6215 19.8042 36.5233 19.7344 36.4309 19.6572C36.4617 19.7147 36.4876 19.7714 36.5119 19.8264C36.5957 19.9898 36.6134 20.1791 36.5613 20.3551C36.4879 20.6092 36.3788 20.8515 36.2374 21.0749C37.1164 21.5516 37.8805 22.2148 38.4761 23.0181C38.7042 22.8557 38.9579 22.7326 39.2266 22.6537C39.3364 22.6354 39.4491 22.6456 39.5537 22.6835C39.6584 22.7214 39.7515 22.7856 39.8241 22.8699C40.3338 23.4666 40.7676 24.1242 41.1156 24.8276C41.4613 25.6996 40.4784 25.8842 39.9157 26.204C40.4152 26.8769 40.9342 28.5836 40.033 29.1285C39.9516 29.5061 39.8407 29.8767 39.7011 30.2369C40.0071 30.313 40.5318 30.4158 40.6897 30.7025C41.0484 31.3599 40.2703 33.6893 39.9423 34.2827C39.4719 35.1345 38.6688 34.9054 37.8932 34.796C37.8019 35.1194 37.6938 35.4378 37.5693 35.7498C38.319 36.6259 38.9457 36.306 37.8737 37.8079C37.5538 38.2669 37.1916 38.6949 36.792 39.0864C36.638 39.2395 36.4376 39.337 36.2221 39.3637C36.0067 39.3903 35.7885 39.3446 35.6018 39.2337L35.0351 39.973C38.0972 41.853 38.5117 45.4235 35.7144 47.8654C34.64 48.8086 33.2933 49.3853 31.8694 49.5123C28.8923 49.7786 25.4998 47.88 25.3573 44.6228C20.0784 44.9717 17.3726 47.4914 17.5329 52.933C17.5855 54.4365 16.2698 55.009 15.2011 54.0058C14.7974 53.5908 14.4929 53.0898 14.3105 52.5403C13.8117 51.5027 13.5447 50.3688 13.5281 49.2176C13.5114 48.0664 13.7455 46.9254 14.2141 45.8737C13.1243 45.4851 14.9679 42.6885 16.0253 43.486C16.5527 42.8752 17.1773 42.3554 17.8737 41.9477C17.8042 41.9209 17.7422 41.8775 17.6932 41.8214C16.9896 40.9308 20.8022 39.2904 21.1747 40.2361C21.9512 39.9577 22.7484 39.7411 23.5591 39.5884C22.8102 38.5399 27.5458 38.2452 27.7191 39.2848C29.8242 35.5749 31.3989 31.0142 27.7191 27.8363C25.0302 31.7445 20.1545 31.3405 16.9653 28.497C15.1605 27.0219 13.8212 25.0561 13.1089 22.8367C11.8135 19.2653 12.36 15.3151 13.8652 11.9064C14.4414 10.7286 15.0834 9.5841 15.7881 8.47837H17.3078C15.1557 11.6652 13.564 15.4074 13.7891 19.2516C14.0088 15.3942 15.2757 11.6697 17.4536 8.47837H18.1587C15.4843 12.019 14.0142 16.3231 13.9639 20.76C14.3466 23.0914 15.4181 25.255 17.0406 26.9724C18.9886 28.9156 21.5431 30.5859 24.4019 29.3301C25.7731 28.6954 26.8555 27.5682 27.4341 26.1725C27.6654 25.6909 28.015 25.2758 28.45 24.9658C28.885 24.6558 29.3915 24.4609 29.9221 24.3993C30.4147 24.3795 30.9055 24.4711 31.3578 24.6674C31.81 24.8637 32.2121 25.1595 32.5341 25.5328C32.1332 25.3316 31.7112 25.1754 31.2759 25.0673C36.2957 29.0815 35.4593 34.5774 32.1511 39.292C32.2321 39.1066 32.2847 38.9123 32.347 38.7253C34.0424 35.9644 35.1144 32.9849 34.1283 29.7236L34.1987 30.4272C33.6337 28.4338 32.3858 26.7025 30.6735 25.5361C30.6805 25.6157 30.7119 25.6911 30.7634 25.7523C32.9818 27.6072 34.1178 29.7333 33.8344 32.5776C33.8637 32.03 33.8366 31.4809 33.7534 30.9389C33.3142 28.8879 32.1026 27.0847 30.3699 25.9029L30.5318 26.1854C33.4344 28.7034 34.0716 31.7558 32.9705 35.3118C32.9705 35.0381 32.9769 34.7855 32.9526 34.5127C33.3524 33.0488 33.2889 31.4971 32.7707 30.0709C32.2525 28.6446 31.3052 27.414 30.059 26.5481L30.565 27.4533L30.5577 27.4477C31.191 28.0784 31.6815 28.8377 31.9963 29.6741C32.3111 30.5106 32.4429 31.4049 32.3827 32.2967C32.3744 31.8029 32.3172 31.3112 32.2118 30.8288C31.782 29.2402 30.8189 27.8477 29.4841 26.885C29.6533 27.2186 29.8448 27.5405 30.0573 27.8484C30.8662 28.6324 31.4729 29.6009 31.8254 30.6707C32.178 31.7406 32.2658 32.88 32.0815 33.9913C32.0266 33.7405 31.9547 33.4938 31.8661 33.2529C31.8807 32.7613 31.8414 32.2696 31.7487 31.7866C31.4776 30.3818 30.76 29.1022 29.7027 28.1383C33.0482 32.2821 30.1496 37.8687 27.6114 41.6303C27.2675 42.1028 26.9843 42.6166 26.7685 43.1597C26.4686 43.9829 26.4597 44.884 26.7433 45.7129C27.0269 46.5418 27.5859 47.2486 28.3271 47.7156C28.0004 47.2025 27.7801 46.629 27.6794 46.0291C27.8201 46.679 28.0959 47.292 28.489 47.8282C28.6662 47.9432 28.8506 48.0465 29.0412 48.1375C28.4127 47.4392 28.0364 46.5503 27.9725 45.613C28.0163 45.8968 28.0793 46.1773 28.1612 46.4526C28.3803 47.142 28.7755 47.7624 29.3076 48.2524C29.5281 48.3415 29.7542 48.4159 29.9845 48.4751C29.4493 48.0791 29.0221 47.555 28.7421 46.951C28.4621 46.3469 28.3384 45.6822 28.3822 45.0179C28.4364 45.3369 28.4388 45.6567 28.506 46.0065C28.616 46.5242 28.8318 47.0136 29.1399 47.444C29.4479 47.8744 29.8416 48.2364 30.2962 48.5075C30.5304 48.6044 30.783 48.6486 31.0362 48.637C30.2845 48.3039 29.6652 47.7298 29.2759 47.0056C28.8867 46.2813 28.7497 45.4481 28.8866 44.6373C28.9174 44.0973 28.9012 44.4649 28.9028 44.7118C28.923 46.404 29.4282 47.7326 31.1917 48.4889C31.3374 48.5701 31.4985 48.6202 31.6647 48.6358C31.8308 48.6514 31.9984 48.6322 32.1568 48.5795C29.5829 47.8905 28.9627 45.7118 29.6525 43.4439C29.6768 43.3694 29.5505 44.0471 29.5286 44.2625C29.2857 46.6283 30.4249 48.1261 32.8199 48.4257L33.1866 48.3051C31.3714 48.1278 29.9958 47.2048 29.965 45.2171C29.9882 44.2398 30.2043 43.2768 30.6006 42.3833C30.424 42.9218 30.2857 43.4721 30.1869 44.0301C29.8995 46.1312 30.629 47.6841 32.9511 47.9351C34.5396 48.1059 36.0981 46.3854 36.4398 44.9483C36.6586 44.0731 36.5383 43.1475 36.103 42.3574C36.3095 43.071 36.3297 43.8257 36.1617 44.5494C35.9938 45.2731 35.6433 45.9417 35.1436 46.4914C34.8826 46.7802 34.6055 47.054 34.3137 47.3116C34.8288 46.7859 35.2444 46.1711 35.5403 45.4972C35.8649 44.697 35.9251 43.814 35.7121 42.9771C35.4992 42.1403 35.0242 41.3935 34.3566 40.8458L34.3209 40.8919C34.975 41.5366 35.3742 42.3958 35.4451 43.3114C35.5161 44.2271 35.2541 45.1375 34.7072 45.8753C34.501 46.1477 34.2793 46.408 34.0433 46.655L34.2433 46.3708C34.8193 45.6671 35.1109 44.7731 35.0605 43.8651C35.0102 42.9571 34.6215 42.1008 33.9712 41.4651C34.4178 42.0387 34.6604 42.7449 34.6604 43.4719C34.6604 44.1988 34.4178 44.905 33.9712 45.4786C33.8902 45.5846 33.0474 46.5886 33.5494 45.9077C34.0131 45.3469 34.2652 44.641 34.2613 43.9133C34.2575 43.1857 33.998 42.4825 33.5283 41.9266L33.4579 42.0189C33.8627 42.4238 34.3485 43.4204 33.5388 43.6577C33.4632 43.6787 33.3848 43.6874 33.3065 43.6836C33.9631 44.2341 33.5299 43.8892 33.2093 43.6739C33.1356 43.6642 33.0633 43.6457 32.994 43.6188C33.1857 43.7556 33.3643 43.9098 33.5275 44.0795C33.3269 43.9198 33.1165 43.7727 32.8976 43.639C32.7446 43.5467 32.5883 43.4625 32.462 43.4018L32.4491 43.4213C32.8001 43.6281 33.1226 43.8799 33.4085 44.1702C33.2146 44.0154 33.0109 43.8731 32.7988 43.7443C32.6555 43.6569 32.5082 43.5775 32.3867 43.5184L32.3738 43.5378C32.7091 43.7381 33.0172 43.9808 33.2903 44.2601C32.9804 44.028 32.6534 43.8196 32.3122 43.6366C32.8762 43.894 33.3239 44.3525 33.568 44.9223C33.7113 45.3328 33.6287 45.7895 33.1632 45.9061C32.878 45.9687 32.5804 45.9398 32.3127 45.8235C32.0449 45.7072 31.8207 45.5095 31.6718 45.2584V45.3539C32.1576 46.0016 32.7324 46.3036 33.47 45.8947C33.1903 46.0813 32.8491 46.1518 32.5184 46.0914C32.1876 46.0309 31.8933 45.8443 31.6977 45.5709C31.7113 45.6349 31.7336 45.6967 31.7641 45.7547C31.9613 45.9674 32.2159 46.1183 32.4971 46.1893C32.7783 46.2603 33.0741 46.2483 33.3486 46.1546L33.3243 46.1822C33.1057 46.2712 32.8685 46.305 32.6338 46.2804C32.3991 46.2558 32.174 46.1737 31.9786 46.0413C32.1132 46.2068 32.2935 46.329 32.4971 46.3928C32.7007 46.4566 32.9185 46.4591 33.1235 46.4C32.9332 46.6008 32.3138 46.3425 32.0305 46.319C30.7658 46.1166 30.531 45.1523 30.9658 43.967C31.6758 42.1048 33.3081 40.4968 34.5202 38.8961C37.6073 34.7378 38.2446 31.1834 36.3645 26.4615L36.1151 25.8284C36.4142 26.2165 36.69 26.622 36.941 27.0428C36.9308 26.797 36.9868 26.5529 37.1029 26.336C36.9471 26.0374 36.8405 25.7156 36.7872 25.3831C36.9696 25.6144 37.1668 25.8337 37.3774 26.0397C37.2548 25.5614 37.0639 25.1033 36.8106 24.6795C35.784 25.1013 34.878 24.1208 34.1121 23.5727C32.1687 22.2233 29.9258 21.3679 27.5774 21.0806C27.4851 21.5113 27.4414 21.9712 27.345 22.4076C27.0902 21.0423 27.0789 19.6427 27.3118 18.2735C26.7302 19.7538 26.5495 21.3614 26.788 22.9339L26.707 22.9242C25.9735 19.4329 27.2738 17.0137 28.9522 14.0925L29.0979 13.8755L28.5579 14.5151C29.3152 13.4145 30.1834 12.3944 31.1488 11.4708C31.2233 11.385 31.8977 10.6507 31.9017 10.6337C28.8129 13.4796 25.6472 16.9651 25.5954 21.4393C25.595 22.1098 25.656 22.7789 25.7775 23.4383L25.7176 23.4294C24.5032 18.8953 26.9807 14.8762 29.7886 11.5129C29.2955 12.023 28.8251 12.5428 28.3571 13.0756C29.4433 11.6993 30.6288 10.4045 31.9042 9.20139L31.8872 9.1609C30.5659 10.359 29.3104 11.6276 28.1263 12.9614C28.738 12.1588 29.3989 11.395 30.1051 10.6741C27.9051 12.7434 26.1635 15.2512 24.993 18.0355C24.7291 18.7671 24.5244 19.5187 24.3809 20.2831C24.4641 19.3833 24.6504 18.496 24.9363 17.6388C25.7924 15.2811 27.0767 13.1019 28.7247 11.2109C28.1579 11.8514 27.6276 12.5064 27.1054 13.1752C28.2385 11.5926 29.4794 10.0902 30.8193 8.67835C30.1655 9.27284 29.547 9.9049 28.9668 10.5713C28.2284 11.381 27.541 12.2092 26.8682 13.0675C27.4066 12.2748 28.0543 11.4757 28.6696 10.7389C26.2042 13.3298 24.2975 16.0178 23.4304 19.5471C23.4061 19.6677 23.245 20.6272 23.3235 19.9519C23.6382 17.6549 24.4737 15.4602 25.7662 13.5354C26.9544 11.7019 28.3372 10.002 29.8906 8.46542H29.6201C29.2599 8.82814 28.8631 9.23539 28.4866 9.65884C27.697 10.5593 26.9589 11.5035 26.2755 12.4869C26.9386 11.6263 27.6146 10.7867 28.3563 9.98756C28.8558 9.44428 29.3756 8.9755 29.8906 8.46542H37.7814L37.7944 8.47027ZM29.544 8.47027C29.0647 8.92368 28.5935 9.37951 28.1417 9.87178C27.396 10.6741 26.7159 11.5202 26.0496 12.3866C26.8928 11.1815 27.8166 10.0349 28.8145 8.95444C26.3103 11.5097 23.5219 15.2462 22.8029 18.6792C22.479 20.2474 22.5187 23.4132 23.6166 24.6989C23.8887 25.0058 24.3129 24.8608 24.6821 24.8195C23.8595 25.3126 23.4676 25.2066 22.9543 24.2844C21.9827 22.559 21.9827 19.9212 22.3876 18.0007C23.0039 15.8189 24.0142 13.7683 25.3686 11.9502C25.1257 12.274 24.8829 12.6124 24.6465 12.9436C24.6861 12.874 25.5687 11.4911 26.5945 10.1989C27.0455 9.62483 27.5231 9.07022 27.9239 8.63544C27.84 8.68601 27.7616 8.74516 27.6899 8.81195C26.4978 10.0744 25.4 11.4225 24.4052 12.8456C24.4449 12.776 25.3306 11.3883 26.3637 10.0863C26.7127 9.64346 27.1207 9.21272 26.3993 9.90254C24.3363 12.2845 21.8103 15.9749 21.5066 19.39C21.3234 21.0908 21.5912 22.8098 22.2831 24.3742C23.0182 25.7911 23.8829 25.9126 25.0691 25.23C24.8609 25.4341 24.6325 25.6164 24.3874 25.7741C22.9106 26.1538 22.0961 25.0009 21.6014 23.7111C19.957 19.424 21.6904 15.2479 24.1429 11.6854C23.7291 12.2157 23.3502 12.7574 22.9681 13.3087C23.6155 12.2037 24.3569 11.1565 25.1841 10.1786L25.2974 9.93088C24.3627 10.9632 23.5026 12.0606 22.7235 13.2148C23.5395 11.8312 24.4926 10.5333 25.5686 9.34065L25.6229 9.22001C23.8307 11.0998 22.382 13.2791 21.3423 15.6592C20.4047 17.6786 20.1169 19.9392 20.5188 22.1291C20.7512 23.4439 21.2913 25.0835 22.4474 25.9166C21.9514 25.6616 21.5074 25.3162 21.1382 24.8981C20.1994 23.2182 19.7588 21.3056 19.8679 19.3844C20.0007 16.1563 21.9074 12.7922 23.7607 10.3114L23.4368 10.6968C23.9905 9.92068 24.5894 9.17776 25.2302 8.47189H29.5432L29.544 8.47027ZM25.0974 8.47027C24.4416 9.14309 23.8263 9.83696 23.2028 10.5851C23.7204 9.83951 24.2916 9.13269 24.912 8.47027H25.0974ZM24.7452 8.47027C23.7614 9.47332 22.8776 10.5699 22.1066 11.7445C19.8889 15.111 18.5352 18.484 19.4493 22.5128C19.1999 22.0562 18.9743 21.5934 18.7724 21.1243C18.4907 18.7435 18.9278 16.3329 20.0274 14.2026C21.0038 12.137 22.247 10.2084 23.7251 8.46623H24.7469L24.7452 8.47027ZM23.7024 8.47027L23.4385 8.73908C23.5113 8.64921 23.5858 8.56014 23.6619 8.47027H23.7024ZM34.2433 17.7464C32.7444 16.6445 31.3682 15.3847 30.1383 13.9889C29.9575 14.2557 29.8066 14.5416 29.6881 14.8414C30.313 15.0323 30.9216 15.2728 31.5082 15.5604C32.6336 16.179 31.475 17.2064 31.6256 17.2768C32.2023 17.5602 32.7561 17.8877 33.2822 18.2565C33.479 18.1134 33.6863 17.9854 33.9024 17.8736C34.0083 17.8141 34.1227 17.7712 34.2416 17.7464H34.2433ZM31.8094 12.0708C34.7865 14.6236 38.5125 15.7952 42.6628 16.0203C43.507 16.1107 44.3607 16.0294 45.1727 15.7814C44.5566 16.0891 43.5647 16.8874 43.6166 17.6639C43.6198 17.8015 43.674 17.9331 43.7688 18.0331C44.9687 19.156 49.3457 17.0275 48.5684 15.8608C48.3055 15.5928 47.9554 15.4277 47.5814 15.3952C46.814 15.285 46.031 15.3936 45.3225 15.7085C45.764 15.5055 46.2221 15.3405 46.6916 15.2155C47.4307 14.7765 48.1443 14.2962 48.8291 13.7767C49.0253 13.5306 49.268 13.3254 49.5432 13.1727C49.436 13.3555 49.3723 13.5605 49.357 13.7719L49.3448 13.9476C49.4258 13.8067 49.5205 13.6804 49.6145 13.5427C49.6266 13.7047 49.2177 14.1014 49.4404 14.3912C49.5722 14.0889 49.7408 13.8039 49.9423 13.5427C49.8062 13.8664 49.6928 14.1991 49.6031 14.5386L49.6752 14.6082C49.8386 14.1852 50.0616 13.7877 50.3375 13.4278C50.3375 13.5306 49.7124 14.6609 49.927 14.8762C50.0698 14.416 50.2984 13.9869 50.6006 13.6116H50.6136C50.3998 13.9613 49.948 15.1037 50.4613 15.3839L50.4492 15.3774C51.458 15.6608 53.4449 12.6416 52.7899 12.2562L52.8012 12.2635C52.3154 12.0206 51.2168 12.8497 50.9156 13.1962H50.9115C51.214 12.7646 51.5813 12.3823 52.0005 12.0627C51.8385 12.0157 50.8767 12.9161 50.7649 12.9646C51.0531 12.5949 51.3863 12.2625 51.7568 11.9752L51.6839 11.9461C51.5762 12.006 51.4596 12.0773 51.3439 12.1582C50.9836 12.4092 50.6646 12.7185 50.6419 12.725C50.8769 12.4271 51.1423 12.1544 51.4338 11.9113C51.3424 11.9032 51.251 11.9257 51.1738 11.9752C50.9448 12.137 50.7243 12.3105 50.5132 12.495C50.6354 12.3485 50.7561 12.2084 50.8864 12.0716C50.5966 12.2052 50.3294 12.3744 50.05 12.5056C50.2474 12.0471 50.5914 11.6672 51.0281 11.4255C51.2839 10.9069 51.6237 10.4342 52.0337 10.0264C51.9215 9.66706 51.9318 9.28063 52.0628 8.92773C52.1035 9.26747 52.2137 9.59518 52.3867 9.8904C52.3526 9.62147 52.3544 9.34918 52.3923 9.08075C52.4484 9.44074 52.5431 9.79364 52.6749 10.1333L52.7494 10.1422C52.6477 9.76018 52.6272 9.36105 52.6895 8.97064C52.7449 9.32608 52.828 9.67665 52.9381 10.0191C52.9415 9.67627 52.9803 9.33468 53.0538 8.99978L53.0701 9.00383C53.0458 9.42404 53.2036 10.2693 53.6659 10.4272C53.8821 10.5179 54.3582 9.51229 54.41 9.36737C54.6842 8.68879 54.7058 7.93434 54.4707 7.24122C54.422 7.18951 54.3677 7.14335 54.3088 7.10358H54.3234C53.8003 7.07039 53.2514 8.12698 53.1405 8.56095H53.1332C53.1996 8.10808 53.3431 7.66992 53.5575 7.26551C53.4808 7.36456 53.4097 7.46782 53.3445 7.5748C53.2025 7.82511 53.0736 8.08266 52.9583 8.3464C53.0413 7.95431 53.1755 7.57485 53.3575 7.21774C53.0077 7.29061 52.8814 8.02739 52.7284 8.16665C52.7769 7.95618 52.8372 7.74858 52.9089 7.54484C52.769 7.81191 52.5669 8.04131 52.3195 8.21361C52.3535 8.00149 52.4499 7.77074 52.4863 7.55456C52.6367 6.96961 52.6311 6.35545 52.4701 5.77333C52.5371 6.66179 52.438 7.55497 52.1778 8.40712C51.1293 11.9809 47.4171 14.8698 43.3526 15.5191C43.1097 15.5652 42.8806 15.5717 42.6531 15.609C41.5039 15.6482 40.3541 15.5479 39.2291 15.3102C36.6045 14.7581 34.1761 13.5119 32.1972 11.7016C32.0645 11.8225 31.9349 11.9431 31.8086 12.0635L31.8094 12.0708ZM32.7292 11.2401C34.3447 12.6997 36.2778 13.7634 38.3754 14.347C40.473 14.9306 42.6776 15.0181 44.8148 14.6026L45.1525 14.4115C43.0151 14.8506 40.8026 14.7599 38.7083 14.1474C36.614 13.5349 34.7013 12.4192 33.1373 10.8976C33.0002 11.011 32.8652 11.1246 32.7324 11.2385L32.7292 11.2401ZM44.7411 21.6319C45.5851 21.6193 46.4017 21.3304 47.0657 20.8093C47.1601 20.6894 47.2295 20.5518 47.2697 20.4045C47.1537 20.1916 46.9631 20.029 46.7345 19.9479C46.2056 19.7365 45.6248 19.6911 45.0694 19.8178C44.5141 19.9445 44.0104 20.2372 43.6255 20.6571C43.3162 21.0701 43.4822 21.2765 43.4814 21.2757C43.6943 21.6093 44.3979 21.6417 44.7428 21.6352L44.7411 21.6319ZM41.4005 20.0434C41.4005 20.0434 42.0831 19.9673 42.9016 19.8208C43.8839 19.6626 44.8441 19.3889 45.7622 19.0054C45.5634 19.1205 45.3554 19.2188 45.1403 19.2993L45.3832 19.2297C45.2651 19.3344 45.1377 19.4282 45.0027 19.5099C45.3148 19.4191 45.6216 19.311 45.9216 19.186L45.8407 19.2321C46.9951 18.8804 48.1122 18.4158 49.1756 17.8452C47.5315 18.6745 45.8336 19.3926 44.0934 19.9948C45.6602 19.5442 47.1938 18.9856 48.6833 18.3229C48.9191 18.0645 49.1806 17.8309 49.4638 17.6258C49.0153 17.8387 48.587 18.0379 48.1271 18.2298C48.7165 17.778 49.3343 17.4031 49.9002 16.9133C50.3775 16.5106 50.8324 16.0822 51.2629 15.63C51.0667 15.7226 50.8538 15.7747 50.6371 15.783C50.105 16.2824 49.5466 16.753 48.9643 17.1926C48.0559 18.0958 46.8725 18.6704 45.601 18.8257C44.2914 19.4303 42.897 19.8305 41.4661 20.0126L41.4005 20.0434ZM43.4247 19.2629C43.9219 19.1597 44.4126 19.0272 44.8942 18.8662C44.7421 18.8642 44.5904 18.852 44.44 18.8297C43.7692 19.0603 43.0838 19.2458 42.3883 19.3852L42.3074 19.4661C42.6466 19.4119 43.036 19.3431 43.4223 19.2605L43.4247 19.2629ZM39.0185 19.8353C39.7821 19.8584 40.5409 19.707 41.237 19.3925C41.488 19.3925 41.977 18.8621 42.0167 18.5901C42.0161 18.4166 41.972 18.246 41.8884 18.0939C41.8048 17.9418 41.6844 17.8132 41.5382 17.7197C40.9564 17.2945 40.2507 17.0728 39.5303 17.089C40.3007 17.0582 41.0693 17.1861 41.7884 17.4647C42.5535 17.8217 42.994 18.4937 42.5171 19.2103C43.1223 19.1113 43.7215 18.9789 44.3121 18.8136C43.915 18.7653 43.5499 18.5717 43.287 18.2703C42.7203 17.3797 43.866 16.5247 44.5372 16.1207C44.2319 16.2575 43.9388 16.3077 43.6465 16.4275C43.3814 16.5233 43.148 16.6907 42.9723 16.9111C42.7965 17.1315 42.6852 17.3962 42.6507 17.676C42.5828 17.4676 42.581 17.2434 42.6455 17.034C42.71 16.8245 42.8376 16.6402 43.011 16.5061C41.1055 16.637 39.1916 16.444 37.3507 15.9352C37.8203 16.2081 38.3012 16.4583 38.791 16.6915C38.2242 16.4511 37.6712 16.1794 37.1345 15.8778L36.4593 15.6843C37.0485 16.0556 37.6559 16.3972 38.2794 16.7077C37.5485 16.3847 36.8408 16.0116 36.1613 15.5911L35.5444 15.3839C36.2888 15.879 37.059 16.3342 37.8519 16.7473C36.9228 16.3178 36.0293 15.8151 35.18 15.2438L34.6133 15.0268C35.5259 15.6896 36.4827 16.2893 37.477 16.8218C37.2017 16.885 34.4554 15.0568 34.1283 14.822L33.6295 14.5953C34.7402 15.4657 35.92 16.2442 37.1572 16.923L37.1078 16.9408C35.6604 16.1889 34.2871 15.3022 33.0061 14.2925L32.6928 14.1305C33.9268 15.1877 35.2547 16.13 36.6601 16.9457C36.6131 16.919 36.1006 16.6566 35.3986 16.2324C34.2031 15.499 33.0687 14.6704 32.0062 13.7549L31.6572 13.5492C33.1094 14.8985 34.7059 16.0834 36.418 17.0825C36.6547 16.9668 36.9223 16.9301 37.1815 16.9781C36.9825 17.0206 36.7952 17.106 36.6325 17.2283C36.9376 17.0769 37.2633 16.9716 37.5992 16.9157C37.3167 17.0202 36.4107 17.1991 36.3281 17.6096C36.7607 17.2759 37.2794 17.0723 37.8235 17.0226C37.5022 17.0802 37.1899 17.1801 36.8948 17.3198C36.677 17.4251 36.4802 17.5694 36.3143 17.7456L36.3345 17.8452C36.8127 17.4111 37.432 17.1649 38.0777 17.1522C37.4616 17.3198 36.9442 17.3141 36.4584 17.8752C37.2827 17.3579 38.2382 17.0883 39.2113 17.0987C38.721 17.1076 38.2377 17.2164 37.7909 17.4186C37.3442 17.6207 36.9434 17.9119 36.6131 18.2743C36.5266 18.3969 36.4815 18.5438 36.4843 18.6937C36.571 19.6038 38.3465 19.8272 39.0161 19.8386L39.0185 19.8353ZM35.0804 16.8396C35.3865 17.0307 35.6901 17.2185 36.0042 17.3983C36.0526 17.3334 36.1102 17.2758 36.1751 17.2275C34.6308 16.3916 33.1763 15.3994 31.8345 14.2666C32.8021 15.2593 33.8927 16.1243 35.0796 16.8404L35.0804 16.8396ZM31.1941 13.4658C32.7006 14.9121 34.3744 16.1733 36.1799 17.2226C36.2513 17.1662 36.33 17.1199 36.4139 17.085C34.549 16.0679 32.8099 14.8355 31.2321 13.4132C31.0832 13.2828 31.1601 13.431 31.1966 13.4666L31.1941 13.4658ZM49.076 17.0339C49.5606 16.6431 50.0203 16.2223 50.4524 15.7741L50.3294 15.745C49.9958 16.0551 49.6509 16.3546 49.3011 16.6453C49.2441 16.7851 49.1678 16.9161 49.0744 17.0348L49.076 17.0339ZM49.3497 16.5069C49.6428 16.2437 49.9262 15.9717 50.2047 15.6972L50.1124 15.6349L49.3926 16.2826C49.3856 16.3593 49.3712 16.4353 49.3497 16.5093V16.5069ZM53.4093 15.4187C53.4169 15.4536 53.4313 15.4867 53.4518 15.516C53.4722 15.5453 53.4982 15.5703 53.5283 15.5895C54.2821 15.6017 55.6779 13.652 55.4407 12.9412C55.3775 12.8375 54.98 13.0019 54.8877 13.044C54.4967 13.2116 54.1532 13.4734 53.8878 13.8059C54.1429 13.4119 54.4488 13.0534 54.7978 12.7396C54.5906 12.6699 53.8862 13.4682 53.7372 13.5492C53.98 13.2122 54.2671 12.9094 54.5906 12.6489C54.4408 12.5744 53.6886 13.384 53.572 13.4504C53.7814 13.1698 54.0166 12.9096 54.2748 12.6732C53.9267 12.8169 53.6204 13.0461 53.3842 13.3395C53.2301 13.7148 53.0229 14.066 52.7689 14.3823C52.7332 14.5062 52.6879 14.7256 52.7964 14.8244C52.8917 14.5439 53.0129 14.2729 53.1583 14.0148C53.1583 14.0544 52.9373 14.7086 52.9081 14.9353L52.9591 14.992C53.0549 14.6657 53.1888 14.3518 53.3583 14.0569C53.2557 14.3896 53.1714 14.7278 53.1057 15.0697C53.2616 14.7008 53.4667 14.3547 53.7153 14.0407H53.7226C53.4516 14.4449 53.3408 14.9356 53.4117 15.4171L53.4093 15.4187ZM48.4121 18.6443C48.4805 18.5472 48.5548 18.4544 48.6348 18.3666C47.4675 18.9092 46.2737 19.3927 45.0578 19.8151C46.2111 19.5257 47.3362 19.1333 48.4194 18.6427L48.4121 18.6443ZM48.2502 18.9115L48.374 18.6978C47.6144 19.0539 46.8363 19.3693 46.0431 19.6426C46.1568 19.6287 46.2711 19.6206 46.3855 19.6183C47.0519 19.3852 47.7053 19.1415 48.2478 18.9131L48.2502 18.9115ZM51.3487 16.9271C50.6671 16.9688 50.0125 17.2088 49.4655 17.6177C48.9837 17.9885 48.0891 19.1334 48.7854 19.6896L48.7764 19.6823C49.7229 20.3025 52.3187 18.5885 52.2985 17.4153C52.2717 16.9514 51.709 16.9093 51.3495 16.923L51.3487 16.9271ZM53.5161 12.4813C53.7437 12.1987 53.9566 11.9024 54.1825 11.6158C54.179 11.778 54.1545 11.9391 54.1096 12.0951C54.3047 11.8239 54.4797 11.539 54.6335 11.2425C54.3493 11.5664 54.3906 11.5429 54.5161 11.1696C54.6334 10.8396 54.7064 10.4955 54.733 10.1462C54.636 10.3509 54.4885 10.5275 54.3043 10.6593C54.1202 10.7912 53.9055 10.8741 53.6805 10.9C53.5376 11.252 53.3727 11.5946 53.1866 11.9259C53.2806 11.987 53.3594 12.0689 53.4169 12.1651C53.4744 12.2614 53.5092 12.3695 53.5186 12.4813H53.5161ZM55.4245 10.1284C55.36 9.77799 55.3499 9.4197 55.3945 9.06618C55.4381 9.43318 55.5104 9.79621 55.6107 10.1519L55.6917 10.1681C55.6568 9.78087 55.6841 9.39053 55.7726 9.01193H55.7848C55.7682 9.34545 55.8468 9.67681 56.0115 9.96732C56.201 10.3211 56.3718 10.3163 56.3718 10.3163C57.0608 9.92764 57.4875 7.88733 56.8616 7.32867H56.8762C56.3904 7.2979 55.9046 8.31725 55.8237 8.7245C55.8706 8.26986 55.9992 7.82743 56.2034 7.41854C56.0075 7.48412 55.6261 8.40712 55.546 8.49132C55.6299 8.13166 55.7663 7.7863 55.9508 7.46631C55.7314 7.50193 55.448 8.32697 55.3443 8.43789C55.4259 8.11007 55.5469 7.79334 55.7046 7.49465C55.4876 7.5076 55.3225 7.73187 55.2189 7.89947C55.2724 8.47043 55.1974 9.04614 54.9994 9.58435C55.0519 9.70744 55.1154 9.82558 55.1889 9.93736C55.1606 9.6482 55.1606 9.35696 55.1889 9.0678C55.2383 9.16333 55.2351 10.0604 55.4318 10.1203L55.4245 10.1284ZM55.146 7.56751C55.2117 7.44976 55.309 7.35273 55.4269 7.28737C55.415 6.65084 55.2647 6.02453 54.9865 5.4519C54.9255 5.41949 54.8684 5.3801 54.8165 5.3345C54.843 5.51036 54.8344 5.68975 54.791 5.86224C54.7476 6.03473 54.6704 6.19688 54.5638 6.33927C54.6003 6.5012 54.6327 6.6688 54.6545 6.84531C54.7802 6.92704 54.8883 7.033 54.9726 7.157C55.0568 7.28101 55.1163 7.42057 55.146 7.56751ZM53.3567 6.17168L53.4141 6.15548C53.2116 5.91575 53.0539 5.64149 52.9486 5.34583C52.968 5.35879 53.2822 5.81138 53.3947 5.92311C53.3138 5.68751 53.2635 5.41951 53.202 5.17419H53.2093C53.3181 5.45908 53.4999 5.71037 53.7364 5.90287C54.036 6.16034 54.1104 6.10933 54.1485 5.76037C54.2102 5.02132 53.9937 4.28586 53.5412 3.69819C53.2984 3.47716 53.1307 4.2941 53.1178 4.40664C53.1003 4.57098 53.106 4.73697 53.1348 4.89972H53.1275C53.0277 4.58756 52.9653 4.26469 52.9413 3.93785C52.9141 4.23579 52.9044 4.53506 52.9122 4.83413C52.8344 4.55927 52.7904 4.27597 52.781 3.99048L52.6952 4.03096C52.6709 4.18479 52.6773 4.75155 52.6749 4.75965C52.6182 4.55576 52.5806 4.34705 52.5624 4.13622C52.4516 4.38799 52.3979 4.66118 52.4053 4.93615C52.2553 4.67859 52.1982 4.37738 52.2434 4.08278C52.1557 4.07228 52.0687 4.05687 51.9827 4.03663C52.2147 4.5059 52.3647 5.01139 52.4263 5.53124C52.4868 5.56917 52.5435 5.61282 52.5956 5.6616C52.4563 5.17095 52.6312 5.58063 52.798 5.79033C53.2182 6.30041 52.8612 5.72961 52.7689 5.49967C52.9481 5.73903 53.1437 5.96573 53.3542 6.17815L53.3567 6.17168ZM51.9138 5.70856C51.8306 5.28264 51.6321 4.88775 51.3398 4.56695C51.846 5.48795 52.009 6.55868 51.7997 7.58856C51.8658 7.04949 51.8497 6.50351 51.752 5.96926C51.6258 5.23055 51.2534 4.55625 50.6953 4.05606C51.0842 4.51861 51.3715 5.05785 51.5383 5.6387C51.7052 6.21954 51.7479 6.829 51.6637 7.42744C51.6458 7.48945 51.6389 7.55413 51.6434 7.61852C51.6272 7.59747 51.637 7.57075 51.6394 7.54565C51.7312 6.86017 51.6499 6.16262 51.403 5.51661C51.156 4.87059 50.7514 4.29667 50.2258 3.84717L50.1351 3.81802C50.1982 3.89089 50.3059 3.97995 50.378 4.0512C53.2287 7.30357 50.5674 10.6766 47.4729 12.4716L47.2341 12.6683C48.1854 12.2142 49.0513 11.5993 49.7934 10.8506C49.759 10.8977 49.7211 10.942 49.68 10.9834C48.7779 11.9237 47.7035 12.6818 46.5151 13.2164C47.8114 12.7297 48.9782 11.9513 49.9253 10.9413C49.6063 11.3146 49.3287 11.5502 48.9838 11.8935L49.0582 11.8392C50.6338 10.4895 51.973 8.54719 52.0458 6.6097C52.0294 6.30606 51.9874 6.00435 51.9203 5.70775L51.9138 5.70856ZM46.2868 2.41409L46.0366 2.7169C46.4587 2.51406 46.9011 2.35638 47.3563 2.24649C47.8258 1.92785 48.3459 1.6913 48.8947 1.54695L48.9149 1.517C48.2777 1.6445 47.6705 1.89177 47.1256 2.24568C47.6762 1.83816 48.304 1.54698 48.9708 1.38988L48.9781 1.36964C48.2551 1.5761 47.5847 1.89025 46.8803 2.08132C47.071 1.87434 47.2931 1.69865 47.5385 1.56072L47.515 1.53805C47.3061 1.60039 46.9264 1.81495 46.8155 1.83762C47.0157 1.69889 47.2275 1.5778 47.4487 1.47571L47.4219 1.4498C47.2349 1.51052 46.8357 1.72913 46.7418 1.74694C46.9364 1.61348 47.1414 1.49571 47.3547 1.39474C47.141 1.27572 45.8034 2.22868 45.6002 2.42381L45.6375 2.48939C45.8269 2.34335 46.0245 2.20819 46.2293 2.08456C46.1953 2.13476 45.7864 2.457 45.682 2.56307L45.7144 2.62055C45.918 2.46161 46.1313 2.31559 46.3532 2.18334C46.3232 2.23111 45.8957 2.56307 45.7743 2.69585C45.9383 2.58935 46.1102 2.49543 46.2884 2.4149L46.2868 2.41409ZM51.4977 1.25143C51.7835 1.39679 52.0499 1.5777 52.2904 1.78985C52.411 1.81738 52.8757 1.90887 52.9632 1.83276C52.6581 1.76956 52.3599 1.67711 52.0726 1.55667C52.4242 1.63935 52.7823 1.69137 53.1429 1.71212C52.7954 1.62094 52.4559 1.50181 52.1276 1.35588C52.3159 1.41764 52.5098 1.46076 52.7065 1.48461C54.9039 1.72751 52.0661 0.425589 51.0783 0.499267C51.139 0.802886 51.6782 1.17209 51.9535 1.28949C51.5968 1.17909 51.2476 1.04549 50.9083 0.889519L50.8751 0.942146C50.7698 0.942146 51.4419 1.22309 51.4969 1.25224L51.4977 1.25143ZM55.1144 3.04319C54.9385 3.3851 54.9025 3.78201 55.014 4.14998H55.0164C54.8975 3.86863 54.8074 3.57592 54.7476 3.27637H54.7411C54.7015 3.53546 54.7622 4.17589 54.7411 4.24795C54.6611 3.96302 54.6112 3.67049 54.5922 3.37514L54.5493 3.39943C54.2432 3.60913 54.7258 5.03169 55.2423 5.192C55.0785 4.96828 54.9336 4.73131 54.8091 4.48356C54.8901 4.5459 55.214 5.01064 55.3759 5.17257C55.2504 4.89312 55.147 4.60427 55.0667 4.30867V4.303C55.2359 4.6689 55.5339 4.9597 55.9038 5.11994C56.2131 4.81065 55.3937 2.61731 55.1112 3.03914L55.1144 3.04319ZM55.2334 10.3479L55.1435 10.2879C55.0918 10.4865 55.0134 10.6772 54.9103 10.8547C54.7288 11.389 54.4805 11.8983 54.1712 12.3704C54.5015 12.2602 55.1476 10.7341 55.2545 10.3551L55.2342 10.3454L55.2334 10.3479ZM26.4083 26.0033C26.0528 26.3505 25.6319 26.6238 25.1701 26.8074C24.7083 26.9911 24.2148 27.0813 23.7179 27.0731C23.221 27.0648 22.7306 26.9581 22.2752 26.7592C21.8198 26.5603 21.4083 26.2731 21.0646 25.9142C20.6399 25.6391 20.2398 25.3278 19.8687 24.9839C21.8572 27.8711 24.7323 28.0363 27.1369 25.6527L27.43 25.0171C27.1184 25.3749 26.776 25.7046 26.4066 26.0024L26.4083 26.0033ZM27.6705 23.5039C26.8414 24.678 25.7038 25.5999 24.3833 26.1676C23.9448 26.3941 23.4547 26.5021 22.9616 26.4809C24.7728 26.8914 26.4301 25.2989 27.4827 24.073L27.843 23.2934L27.6705 23.5039ZM25.108 27.5715C21.8305 28.5099 19.3846 26.0915 18.5652 23.0545C18.2826 22.6343 18.0227 22.2052 17.7855 21.7631C18.1685 23.9176 19.4185 26.4955 21.4888 27.4865C22.1243 27.8364 22.8411 28.0118 23.5664 27.9949C24.2917 27.978 24.9996 27.7693 25.6181 27.3902C25.4424 27.4598 25.2828 27.5108 25.1047 27.5699L25.108 27.5715ZM35.8941 26.7619C35.3169 25.5034 34.4075 24.4263 33.2636 23.6464C31.6248 22.5416 29.7841 21.7712 27.847 21.3793L27.7264 22.0222C30.935 22.4764 34.5274 24.0172 35.9735 27.1125C36.3605 28.0841 36.0164 27.0898 35.8925 26.7627L35.8941 26.7619ZM33.0903 24.9386C33.3041 25.094 33.5146 25.3159 33.7121 25.4527C32.0545 23.8335 29.9459 22.7536 27.6632 22.355L27.6154 22.7817C29.5884 23.0442 31.4674 23.7843 33.0895 24.9378L33.0903 24.9386ZM34.7371 28.1869C34.5039 27.6899 34.2264 27.2149 33.9081 26.7676C33.3648 26.7076 32.9786 26.1117 32.6936 26.0308C36.3751 29.9608 35.6172 34.5208 32.8199 38.9261C32.398 39.5738 31.9293 40.1851 31.5115 40.8312L31.3277 41.3234C31.637 40.8377 31.9543 40.3948 32.2944 39.9284C34.5695 36.8428 36.4544 32.8934 35.0764 29.033C34.9785 28.7454 34.866 28.463 34.7396 28.1869H34.7371ZM30.2841 41.3275C30.7699 40.364 31.4402 39.5285 32.0029 38.6119C32.0839 38.3844 32.1252 38.1901 32.1762 37.982C31.6629 38.969 30.9326 39.8645 30.4095 40.8441L30.2193 41.4546L30.2849 41.3283L30.2841 41.3275ZM31.0662 39.1366C31.5301 38.42 31.8758 37.8031 32.2645 37.0574L32.3276 36.3983C31.8488 37.5043 31.2768 38.5674 30.6176 39.5762L30.4371 40.1025L31.0662 39.1366ZM31.3463 37.693C31.725 36.9441 32.0586 36.1733 32.3454 35.3847C32.3316 35.1474 32.3066 34.911 32.2847 34.6787C32.0159 35.7871 31.6053 36.8563 31.0629 37.8598L30.9634 38.3739C31.0905 38.1504 31.2305 37.9213 31.3471 37.6922L31.3463 37.693ZM31.42 40.3422L31.7552 39.6394C31.2022 40.4563 30.1496 41.9534 30.0452 42.9589C30.3816 42.0276 30.8442 41.1477 31.42 40.3422ZM29.2801 42.227C29.039 42.7769 28.9111 43.3698 28.9044 43.9702C29.0637 43.0027 29.3749 42.0666 29.8266 41.1963L29.9238 40.7729C29.6732 41.2406 29.458 41.7272 29.2801 42.227ZM30.1504 39.6823L30.2646 39.2483C29.8145 40.0013 28.6898 41.891 28.7417 42.7452C29.0632 41.6622 29.5376 40.6314 30.1504 39.6823ZM14.9209 47.8557L14.8748 47.8023C14.687 48.3904 14.5885 49.0034 14.5825 49.6207C14.6071 49.3717 14.6529 49.1252 14.7194 48.884C14.7591 48.5359 14.8265 48.1915 14.9209 47.8541V47.8557ZM22.4993 43.0221C22.1519 43.2545 21.6961 43.1784 21.3528 43.4828C21.9382 43.2693 22.5409 43.1068 23.1543 42.997C22.9371 43.0252 22.7179 43.033 22.4993 43.0205V43.0221ZM15.9581 46.0607C15.6134 46.4936 15.412 47.023 15.3816 47.5756C15.7653 47.455 16.0977 47.21 16.3265 46.8793H16.3305C16.2067 47.1027 16.0966 47.3529 15.9597 47.5626C16.1629 47.4533 16.3872 46.9635 16.4722 46.9068C16.3654 47.1699 16.218 47.527 16.0892 47.7788C16.256 47.6282 16.6293 47.093 16.6512 47.0784C16.549 47.3615 16.4032 47.6268 16.2188 47.8646L16.2779 47.8986C16.4758 47.6906 16.6615 47.4714 16.8342 47.242C16.7744 47.4018 16.7016 47.5565 16.6163 47.7043C16.7694 47.561 16.8268 47.4404 16.7426 47.6816C16.6455 47.9569 16.4998 48.2039 16.4188 48.4832C15.9913 50.045 15.7136 52.0902 16.4415 53.6358C16.5543 53.309 16.5792 52.9583 16.5135 52.6189C16.3378 49.1374 17.4041 46.2097 20.7707 44.7135C22.0565 44.0872 23.4535 43.7215 24.8812 43.6374L24.8084 43.6018C22.8417 43.6487 20.9302 44.2615 19.3028 45.3668C20.9117 44.2008 22.824 43.5258 24.8084 43.4237C23.6952 43.4312 22.5905 43.619 21.5374 43.9799C20.6741 44.2747 19.8564 44.6892 19.1084 45.2114C20.8089 43.9768 22.838 43.2756 24.9379 43.197C24.7883 43.1579 24.6316 43.1546 24.4805 43.1873C22.4878 43.2755 20.5602 43.9228 18.9182 45.0551C20.6378 43.8068 22.685 43.0888 24.8076 42.9897L24.9072 42.9452C23.6141 43.0015 22.3355 43.2414 21.1099 43.6577C20.8794 43.8251 20.6158 43.9413 20.3367 43.9985C20.6369 43.8264 20.8784 43.568 21.0298 43.2569C20.9579 43.2205 20.8891 43.1783 20.8241 43.1306C20.6539 43.2157 20.4754 43.283 20.2913 43.3314C20.3986 43.2089 20.4893 43.0728 20.5609 42.9266C20.2685 43.1662 19.955 43.379 19.6242 43.5621H19.6185C19.9811 43.3302 20.2617 42.9904 20.4209 42.5906C20.4468 42.4829 20.3998 42.4529 20.4112 42.4667C19.4442 42.6545 18.5828 43.1979 17.9968 43.9896C18.4966 44.0281 18.9968 43.9195 19.4356 43.6771C19.1457 43.8544 18.8518 44.0641 18.5498 44.2139C18.804 44.1669 19.4696 43.9014 19.5521 43.8998C19.2426 44.0435 18.9448 44.2114 18.6615 44.4017C18.8979 44.354 19.4671 44.1281 19.5675 44.1216C19.2548 44.3107 18.9194 44.4592 18.5692 44.5637L18.5822 44.6082C18.6928 44.5968 18.8025 44.5787 18.9109 44.554C19.1401 44.4948 19.366 44.4238 19.5878 44.341C19.3064 44.5111 19.004 44.6437 18.6882 44.7353C19.336 44.6325 19.7983 44.4115 18.8947 44.8972C18.3838 45.1709 18.1352 45.2098 17.7774 45.779C17.6209 46.0503 17.4413 46.3076 17.2406 46.5481C17.2917 46.3421 17.3277 46.1327 17.3483 45.9215H17.3118C17.2482 46.1828 17.1412 46.4315 16.9953 46.6574C16.9953 46.6574 17.1329 46.1109 17.141 45.9741C17.0879 46.0431 17.0303 46.1086 16.9685 46.17C16.8961 46.3421 16.8115 46.5088 16.7151 46.6688C16.7948 46.4345 16.83 46.1873 16.8187 45.9401C16.6958 46.2277 16.5524 46.5061 16.3896 46.7732C16.3702 46.6226 16.707 46.1344 16.5119 45.6567C16.4309 45.4567 16.0115 45.9806 15.9516 46.0559L15.9581 46.0607ZM15.2885 45.3482C15.2632 45.4248 15.2323 45.4995 15.1962 45.5717C15.4393 45.4252 15.648 45.228 15.808 44.9935C15.968 44.7591 16.0755 44.4929 16.1233 44.2131C16.0326 44.2876 15.7824 44.7167 15.6666 44.8657C15.6666 44.796 15.9718 44.3256 15.9565 44.0439C15.8256 44.2832 15.6776 44.5126 15.5136 44.7305C15.6755 44.4649 15.9621 43.346 15.393 43.8398C15.1088 44.0957 14.376 45.0648 14.4805 45.4114C14.5007 45.4818 14.6505 45.417 14.7364 45.3782C15.0185 45.2646 15.2639 45.0755 15.4456 44.8317C15.3023 45.0438 15.1784 45.277 15.0302 45.4794C15.1194 45.4384 15.2061 45.3925 15.2901 45.3417L15.2885 45.3482ZM16.5184 43.9718L16.5256 43.988C16.7398 43.7741 16.9741 43.5813 17.2252 43.4123C16.9833 43.6198 16.7635 43.8518 16.5694 44.1046C16.5787 44.1427 16.5812 44.1822 16.5767 44.2212C16.8111 43.9624 17.0771 43.7342 17.3685 43.5419C17.0821 43.7939 16.8278 44.0802 16.6115 44.3945C16.8219 44.1992 17.0611 44.0376 17.3208 43.9151C17.0246 44.4021 16.6712 44.852 16.2682 45.2551C16.3346 45.2386 16.4031 45.2318 16.4714 45.2349C16.6637 45.0029 16.8779 44.7901 17.111 44.5993C16.9146 44.7991 16.7386 45.0179 16.5856 45.2527L16.6852 45.2924C16.8626 45.0846 17.0577 44.8926 17.2681 44.7183C17.0861 44.918 16.9178 45.1298 16.7645 45.3523C16.8002 45.3879 16.8034 45.3814 16.8544 45.4033C17.0269 45.1973 17.218 45.0076 17.4252 44.8365C17.2501 45.0244 17.0909 45.2264 16.9491 45.4405L17.0811 45.4915C17.2361 45.3163 17.4051 45.1538 17.5863 45.0057C17.436 45.1669 17.2972 45.3384 17.1709 45.5191C17.3037 45.5531 17.3629 45.5312 17.4139 45.4761C17.6267 45.24 17.8544 45.0177 18.0956 44.8106C18.1984 44.7232 17.9498 44.4398 17.8851 44.3864C17.2713 44.3135 17.3523 43.8123 17.6786 43.4148C17.9101 43.1545 18.1799 42.9309 18.4786 42.7517C18.2297 42.8774 17.9893 43.0191 17.7588 43.1759C18.1631 42.8136 18.625 42.5211 19.1254 42.3104C18.5757 42.469 18.0581 42.7228 17.596 43.0601C17.909 42.7738 18.2599 42.5319 18.6389 42.3412C18.1134 42.2886 16.7929 43.5759 16.52 43.9694L16.5184 43.9718ZM20.7885 42.2991C20.813 42.3358 20.8292 42.3774 20.8361 42.421C20.8429 42.4646 20.8402 42.5092 20.8281 42.5517C20.982 42.6877 21.2613 43.0253 21.4759 42.9508C21.7188 42.8699 22.1422 42.8075 22.2912 42.614C22.1438 42.6618 21.5188 42.9379 22.0742 42.6383C22.3066 42.508 22.373 42.5574 22.4467 42.2894C22.1574 42.3674 21.8773 42.4759 21.6111 42.6132C21.8782 42.4234 22.1689 42.2691 22.4758 42.1542L22.4863 42.01C22.0971 42.1013 21.7221 42.2448 21.3714 42.4367C21.7109 42.1963 22.0816 42.0034 22.4733 41.8635L22.4685 41.8044L22.3964 41.7542C21.9519 41.8549 21.5252 42.0225 21.131 42.2513C21.4863 41.9967 21.874 41.7906 22.2839 41.6384C22.2593 41.6054 22.242 41.5676 22.2329 41.5275C21.7593 41.6367 21.3064 41.8212 20.8913 42.074C21.2994 41.7705 21.7527 41.5331 22.2345 41.3704L22.2539 41.3162L22.092 41.3664C21.5633 41.6295 21.029 41.8724 20.4922 42.1161C20.61 42.1361 20.7159 42.2 20.7885 42.295V42.2991ZM19.14 42.0189C19.697 41.9057 20.2191 41.6615 20.663 41.3064C19.8728 41.7752 20.3707 41.4684 20.7286 41.1324C20.3966 41.2182 20.5148 41.1923 20.6929 40.9899C20.456 41.1471 20.209 41.2889 19.9537 41.4141C19.961 41.4012 20.1861 41.2522 20.4112 41.0571C20.2292 41.1544 20.0425 41.2425 19.8517 41.321C20.226 41.1262 20.5355 40.8266 20.7423 40.4587C20.7828 40.3559 20.7423 40.3219 20.7513 40.3397C19.7716 40.4394 18.8593 40.8843 18.1774 41.5947C18.6471 41.6734 19.1294 41.6225 19.5724 41.4473C19.5602 41.474 18.7498 41.8449 18.6818 41.87C19.0473 41.7977 19.4069 41.6984 19.7578 41.5728C19.4339 41.755 19.11 41.8732 18.8008 42.0416C18.9135 42.0433 19.0262 42.033 19.1368 42.0108L19.14 42.0189ZM21.3026 40.832V40.8595C22.1332 40.519 23.0105 40.3058 23.9048 40.2272L23.8239 40.1462C22.9624 40.2966 22.1168 40.5264 21.2978 40.8328L21.3026 40.832ZM24.3129 40.096C25.0305 40.3366 25.8009 40.3724 26.5378 40.1997C26.279 40.2173 26.0193 40.2173 25.7605 40.1997C25.8237 40.1705 26.4892 40.1057 26.6965 40.0466C26.4641 40.011 26.4091 40.0272 26.656 39.956C26.3151 39.99 25.972 39.9957 25.6302 39.973L26.4909 39.8523C26.2739 39.8669 26.0536 39.8685 25.8366 39.8717L25.8407 39.8628C26.3135 39.8317 26.7727 39.6914 27.1823 39.4532C27.29 39.3722 27.2762 39.3277 27.2746 39.3422C26.7964 39.1702 26.2892 39.0934 25.7816 39.1163C25.1864 39.0974 24.5938 39.2027 24.0416 39.4256C24.0416 39.4013 24.0416 39.4086 24.0376 39.4256C24.4726 39.7159 24.9833 39.8722 25.5063 39.875C25.1144 39.8807 24.6967 39.9122 24.3105 39.8839L24.6206 40.0029C24.976 40.0839 25.3201 40.1203 25.3363 40.13C24.9995 40.126 24.6367 40.0774 24.3137 40.0944L24.3129 40.096ZM21.1973 41.338L21.1099 41.4311L22.679 40.9623C23.6619 40.5033 25.7136 40.6587 26.7936 40.7915L26.8009 40.7794C24.9182 40.432 22.9756 40.6239 21.1973 41.3332V41.338ZM23.8425 40.4077L24.1825 40.3778C23.6789 40.1543 21.8451 40.6749 21.3115 40.8919C21.3256 40.942 21.3327 40.9937 21.3325 41.0457C22.131 40.7037 22.9778 40.4879 23.8425 40.4061V40.4077ZM22.7794 41.4878C23.5081 42.1542 25.4181 42.074 26.2018 41.5275C26.3281 41.4376 26.3119 41.3874 26.3095 41.3987C25.8537 40.9445 22.8555 41.189 22.7778 41.4886L22.7794 41.4878ZM24.3453 42.7978L24.1785 42.8399C24.6813 42.78 25.1833 42.7492 25.6877 42.7322L25.7176 42.6586C25.0638 42.7121 24.4068 42.7142 23.7526 42.665C24.427 42.6693 25.1009 42.6238 25.7686 42.529L25.7889 42.4788C25.1158 42.5416 24.4385 42.5457 23.7648 42.491C24.4647 42.4949 25.1639 42.4449 25.8561 42.3412L25.8771 42.2975C25.1774 42.3661 24.473 42.3732 23.772 42.3185C24.4495 42.3217 25.1262 42.2728 25.7961 42.172L25.6067 42.1461C24.9983 42.1958 24.3869 42.1958 23.7785 42.1461C24.5099 42.1823 25.2428 42.1139 25.9549 41.9428C25.2683 42.0202 24.576 42.0335 23.887 41.9825C23.6009 41.9975 23.3142 41.9926 23.0288 41.9679C23.1519 42.0206 23.5761 42.1606 23.5688 42.1622L23.6878 42.1712L22.9592 42.2068L22.9389 42.3104C23.253 42.3533 23.5429 42.3614 23.5583 42.3679C23.3445 42.3825 23.1324 42.3954 22.9178 42.3914L22.879 42.5072C23.1664 42.5501 23.4247 42.5598 23.4385 42.5646C23.2393 42.5784 23.0458 42.5906 22.8466 42.5857L22.7867 42.7015C23.2989 42.7841 23.8179 42.8161 24.3364 42.797L24.3453 42.7978ZM23.3591 8.46946L23.2183 8.61277L23.338 8.46946H23.3591ZM23.1915 8.46946C20.6589 11.4733 18.3093 15.3053 18.0486 19.0621C17.9196 18.5421 17.8196 18.0153 17.7491 17.4841C18.3053 14.3888 20.1432 11.198 22.3187 8.46946H23.1915ZM21.5916 8.46946C20.5641 9.69691 19.6432 11.0098 18.8389 12.3938C19.4845 11.0024 20.2814 9.68637 21.2152 8.46946H21.5916ZM20.4986 8.46946C19.425 9.8254 18.4781 11.277 17.6697 12.806C18.3128 11.2747 19.1251 9.82018 20.0914 8.46946H20.4986ZM19.4396 8.46946C16.2593 12.729 14.4408 17.6056 15.2294 23.2326C15.1533 22.9833 15.0796 22.7339 15.023 22.4861C14.3032 17.3732 15.8893 12.589 18.6882 8.46946H19.442H19.4396ZM32.394 21.9145C32.8541 22.2085 33.291 22.5374 33.7008 22.8982C33.6509 22.7971 33.6126 22.6906 33.5866 22.5809C33.1907 22.3461 32.7916 22.121 32.3859 21.9145H32.394ZM31.4807 21.2854C32.2015 21.6552 32.9009 22.0656 33.5753 22.5145C33.5592 22.4272 33.5592 22.3378 33.5753 22.2505C33.0107 21.9118 32.4252 21.6092 31.8224 21.3445C31.7077 21.3324 31.5939 21.3132 31.4815 21.287L31.4807 21.2854ZM32.7543 21.4473L32.2434 21.3874C32.7057 21.6384 33.1486 21.8959 33.5882 22.1857C33.6078 22.1041 33.6457 22.0279 33.6991 21.9631C33.4093 21.7995 33.0887 21.6214 32.7462 21.4473H32.7543ZM32.7381 20.9575C33.1818 21.2004 33.6053 21.4676 33.9526 21.7032L34.053 21.5688C33.5227 21.253 32.9745 20.9686 32.411 20.717L32.3511 20.7567L32.7332 20.9575H32.7381ZM28.5676 17.2825L28.5611 17.3019C29.6865 17.4434 30.7727 17.8065 31.7569 18.3703C32.7411 18.9341 33.6038 19.6874 34.2951 20.5867L34.7307 20.8668L34.7873 20.8539C34.0552 19.8592 33.1238 19.028 32.0527 18.4131C30.9816 17.7982 29.7941 17.4132 28.566 17.2825H28.5676ZM33.6198 20.1843L34.2133 20.5349C33.8836 20.1569 33.5252 19.805 33.1413 19.4823C33.2144 19.5804 33.2572 19.6978 33.2644 19.82L33.6206 20.1802L33.6198 20.1843ZM34.2764 18.5075H34.27C34.6051 18.7356 34.9108 19.0043 35.18 19.3074C34.9551 19.1142 34.7173 18.9365 34.4683 18.7755L34.1445 18.5828L34.0967 18.612C34.4371 18.8423 34.7475 19.1143 35.0205 19.4216C34.8046 19.2366 34.5765 19.0662 34.3379 18.9115L33.9672 18.6986L33.9291 18.7245C34.2733 18.9522 34.5858 19.2245 34.8586 19.5341C34.8456 19.5269 34.6894 19.3876 34.4764 19.2289C34.9869 19.7281 35.43 20.2918 35.7945 20.9057L35.8674 20.8369C35.6854 20.4949 35.4553 20.1808 35.1841 19.9042C35.4888 20.1388 35.7573 20.417 35.9808 20.73C35.997 20.7138 36.0002 20.6855 36.0099 20.6636C35.8253 20.3416 35.5994 20.0452 35.3379 19.7819C35.6215 19.9981 35.8741 20.2523 36.0885 20.5373L36.1427 20.4879C35.9795 20.0495 35.7309 19.6479 35.4112 19.3064C35.0915 18.9649 34.7072 18.6903 34.2805 18.4986L34.2764 18.5075ZM28.7028 16.8599L28.6955 16.8801C29.9782 17.051 31.2103 17.4908 32.3114 18.1705C33.4125 18.8502 34.3577 19.7547 35.0853 20.8247C35.1911 20.8253 35.2967 20.8345 35.4011 20.8523C34.2107 19.2468 32.5824 18.0188 30.7116 17.3157C30.0731 17.0494 29.3936 16.8957 28.7028 16.8599ZM30.191 16.6599C29.9307 16.5515 29.6621 16.4643 29.3878 16.3992C29.2343 16.365 29.0788 16.3401 28.9222 16.3247L28.8412 16.5133C29.5243 16.5521 30.1983 16.6885 30.8427 16.9182C30.8994 16.7846 30.9601 16.6656 31.0127 16.566C31.19 16.2267 31.1901 16.2267 31.0071 16.1271C30.4641 15.8659 29.9019 15.6467 29.3254 15.4713L29.2833 15.5523C29.7472 15.66 30.1942 15.8305 30.6119 16.0591C30.2882 15.9222 29.953 15.8139 29.6104 15.7353L29.2266 15.6648L29.2024 15.7118C29.6581 15.816 30.097 15.9839 30.5059 16.2105C30.1979 16.0806 29.8793 15.9771 29.5537 15.9012C29.4137 15.8705 29.2736 15.847 29.1433 15.8292L29.1206 15.8729C29.5683 15.9713 29.999 16.135 30.399 16.3587C30.1073 16.2355 29.8056 16.1374 29.4971 16.0656C29.3473 16.0324 29.1975 16.0081 29.0615 15.9911L29.0421 16.0308C29.4813 16.1255 29.9034 16.2869 30.2938 16.5093C30.0178 16.3934 29.7326 16.3007 29.4412 16.2324C29.2919 16.1987 29.1407 16.1733 28.9886 16.1563L28.974 16.1927C29.4009 16.2836 29.8108 16.4413 30.1885 16.6599H30.191ZM30.8387 18.1424C31.0961 18.2282 31.339 18.3132 31.5892 18.4217C30.6416 17.8775 29.5807 17.5607 28.4899 17.4963L28.4834 17.5141C29.3004 17.5758 30.099 17.7883 30.8387 18.1407V18.1424ZM28.9287 20.1843C28.5596 20.0787 28.2032 19.9331 27.8656 19.7503V19.7576C28.8871 20.508 30.1287 20.8981 31.3957 20.8668C31.1177 20.8024 30.845 20.7174 30.5796 20.6126C30.8714 20.6756 31.1662 20.7237 31.4629 20.7567L31.607 20.7672C31.2564 20.6369 30.9172 20.4895 30.5585 20.3568C30.7747 20.3397 31.7633 20.666 32.0248 20.4903C31.464 20.4137 30.9148 20.2685 30.3893 20.058L30.9512 20.177C30.6354 20.096 30.318 20.0037 30.0088 19.8993C30.5755 20.0612 32.4102 20.3956 32.7972 19.9203L32.7883 19.9301C32.9348 19.458 31.2386 18.803 30.8784 18.6808C30.0405 18.3769 29.1534 18.2311 28.2624 18.2508L28.1085 18.7763C28.5203 19.2164 29.0302 19.5529 29.5967 19.7584V19.7625C29.141 19.6172 28.6946 19.4444 28.2599 19.2451C28.3697 19.3278 28.4843 19.4038 28.6032 19.4726C28.983 19.6993 29.4355 19.8928 29.4517 19.9066C28.9374 19.763 28.4442 19.5526 27.9846 19.2807L27.9806 19.2985C28.0939 19.4006 28.4842 19.6815 28.481 19.6807C28.8202 19.8782 29.174 20.0305 29.1894 20.0442C28.7501 19.9182 28.3266 19.7424 27.9272 19.5204L27.9118 19.5803C28.0024 19.6549 28.0973 19.7241 28.1959 19.7876C28.5328 20.0046 28.9198 20.1713 28.9344 20.1867L28.9287 20.1843ZM37.8891 23.2529C37.847 22.7023 34.9881 20.3308 34.6748 21.5526C34.6874 21.833 34.7588 22.1076 34.8843 22.3587C35.0098 22.6098 35.1867 22.8316 35.4035 23.01C35.1177 22.7842 34.8497 22.5368 34.6019 22.27C34.6926 22.4319 35.1687 23.065 35.1735 23.0796C34.8463 22.7985 34.5555 22.4776 34.308 22.1242C34.3362 22.2575 34.3774 22.3877 34.4311 22.5128C34.6206 22.8181 34.8553 23.0893 34.8602 23.1079C34.5363 22.8076 34.2894 22.5056 33.9898 22.1963C33.9388 22.3072 34.5331 23.0553 34.5501 23.1411C34.3268 22.9458 34.1234 22.7288 33.9429 22.4934C34.0465 23.3185 35.5516 24.4366 36.2957 24.4366C36.0367 24.2947 35.7895 24.1322 35.5565 23.9508C35.614 23.9581 36.2706 24.2997 36.4949 24.3702C36.237 24.1151 35.95 23.8912 35.6399 23.703C35.6634 23.703 36.0399 23.9305 36.4495 24.0917C36.6026 24.1524 36.8422 24.2714 37.0025 24.2172C36.5009 24.0027 36.0312 23.7201 35.6067 23.3776C35.7055 23.4002 36.3783 23.7743 36.5783 23.8633C36.2441 23.6658 35.9253 23.4433 35.6245 23.1978C36.1949 23.6429 36.8882 23.902 37.6106 23.9403C38.0681 23.92 38.0964 23.6536 37.894 23.261L37.8891 23.2529ZM39.1343 23.2788C39.0953 23.3057 39.0528 23.3273 39.008 23.3427C39.1954 23.5521 39.3698 23.7727 39.5303 24.0034C39.2874 23.8277 39.1003 23.3557 38.7708 23.3784C38.9849 23.6001 39.1782 23.841 39.3481 24.0981C39.1527 23.873 38.9411 23.6624 38.7149 23.4682C38.6507 23.3957 38.5618 23.3496 38.4656 23.3387L38.4696 23.3565C38.7334 23.6076 38.9671 23.8886 39.1659 24.1937C38.9779 23.9771 38.7744 23.7744 38.557 23.5873L38.4915 23.5362L38.4874 23.6504C38.6726 23.8466 38.8391 24.0596 38.9845 24.2868C38.8214 24.1019 38.6479 23.9264 38.4648 23.7613L38.421 23.869C38.5593 24.0305 38.6864 24.2012 38.8016 24.3799C38.787 24.3702 38.6121 24.1572 38.3773 23.9411C38.3356 23.9959 38.2863 24.0444 38.2308 24.0852C38.7304 24.4737 39.091 25.0133 39.259 25.6235L39.2752 25.6308C39.2191 25.2697 39.1057 24.9198 38.9392 24.5945C39.1618 24.9038 39.3307 25.2484 39.4388 25.6138L39.4865 25.5863C39.4254 25.2112 39.3049 24.8482 39.1295 24.5111C39.3493 24.8153 39.5187 25.153 39.6315 25.511L39.6881 25.4835C39.6173 25.1166 39.4935 24.7621 39.3206 24.4309C39.5393 24.7329 39.71 25.0669 39.8266 25.4211L39.8889 25.3936C39.8115 25.0293 39.6846 24.6773 39.5116 24.3475C39.7304 24.6486 39.9024 24.9811 40.0217 25.3337L40.0905 25.3013C40.0079 24.9392 39.8772 24.5899 39.7019 24.2625C39.9187 24.5601 40.0916 24.8873 40.2152 25.2341C40.3359 25.1669 40.3253 25.128 40.2808 25.0155C39.9747 24.3887 39.59 23.8034 39.136 23.2739L39.1343 23.2788ZM38.7295 25.9506C38.5554 25.9466 38.4008 26.2016 38.3401 26.3328C38.1831 26.6618 38.1431 27.0345 38.2267 27.3894H38.221C38.0794 27.0061 38.0113 26.5996 38.0203 26.1911L37.9838 26.2032C37.8817 26.4348 37.8364 26.6874 37.8519 26.94V26.9343C37.868 27.1505 37.9012 27.3286 37.8964 27.3392C37.8209 27.0531 37.7209 26.7741 37.5976 26.5052C37.5782 26.6672 37.6276 27.272 37.6268 27.2744C37.5286 27.0253 37.4656 26.7637 37.4398 26.4971C37.2301 26.8445 37.4106 27.0825 37.3588 27.2177L37.3021 27.0558C37.3001 27.6399 37.522 28.2027 37.9223 28.6281C37.831 28.441 37.7615 28.2441 37.715 28.0411C37.8243 28.1221 38.0786 28.7844 38.2713 28.7949C38.1668 28.484 38.0445 28.199 37.9555 27.8816C38.0445 27.9505 38.3911 28.7723 38.6947 28.8249C38.4397 28.4577 38.2561 28.0456 38.1538 27.6104C38.2731 27.8479 38.4047 28.079 38.5481 28.3027C38.4497 28.0798 38.3629 27.852 38.2883 27.6201H38.2923C38.4806 28.1497 38.8657 28.5863 39.3675 28.8395C39.4522 28.8777 39.5459 28.8912 39.6379 28.8783L39.8056 28.7472C40.2865 28.012 39.3829 25.9369 38.7255 25.9458L38.7295 25.9506ZM38.0138 29.1261C38.0446 29.4086 38.0591 29.6726 38.0681 29.9552C38.1085 30.1462 38.1385 30.3324 38.1693 30.5219C38.2014 30.0691 38.2035 29.6147 38.1757 29.1617L38.0138 29.1261ZM39.5367 30.9073C39.5638 31.25 39.5175 31.5944 39.4007 31.9177C39.4416 31.6771 39.4514 31.4322 39.4298 31.1891L39.3991 30.9899C39.2825 31.287 39.2963 31.5631 39.1862 31.8918C39.1562 31.7712 39.3716 31.0862 39.0955 31.7299C38.807 32.4245 38.4827 33.1036 38.1239 33.7646L38.0567 34.1135L38.0907 34.12C38.3118 33.8242 38.4867 33.4966 38.6097 33.1484C38.5455 33.4967 38.4252 33.8322 38.2534 34.1419L38.3166 34.1516C38.5316 33.8519 38.7023 33.5227 38.8234 33.1743C38.7603 33.5255 38.6411 33.8642 38.4704 34.1775L38.5368 34.1872C38.7496 33.8834 38.9186 33.5511 39.0388 33.2002C38.975 33.5519 38.8573 33.8917 38.6898 34.2074L38.766 34.2139C38.9705 33.9071 39.1338 33.5747 39.2517 33.2253C39.1905 33.5669 39.0797 33.8978 38.923 34.2074C39.3278 34.12 39.8136 31.9898 39.8719 31.602C39.8844 31.4011 39.8733 31.1995 39.8387 31.0012L39.7578 30.9753C39.7721 31.3053 39.7237 31.6349 39.6153 31.9469C39.6584 31.6918 39.6687 31.4322 39.646 31.1745L39.6056 30.9267L39.5367 30.9073ZM37.332 36.438C37.2376 36.8285 37.0564 37.1927 36.8017 37.5035C36.8155 37.4226 37.0446 37.0032 37.0989 36.7902C36.7744 37.4394 36.4052 38.0651 35.9937 38.6629C36.2351 38.4578 36.4564 38.2301 36.6544 37.9828C36.4924 38.266 36.2934 38.5264 36.0625 38.7569L36.1022 38.769C36.1493 38.7475 36.1924 38.7179 36.2293 38.6816C36.6653 38.2471 37.055 37.7684 37.392 37.2533C37.4764 37.0582 37.5365 36.8535 37.5709 36.6437L37.5118 36.5935C37.4059 36.9515 37.2316 37.2856 36.9985 37.5772C37.1296 37.3474 37.2329 37.1028 37.3061 36.8485C37.3385 36.7263 37.3615 36.6018 37.375 36.4761L37.332 36.4396V36.438Z" fill="#00331C"/>
</svg>
