<svg xmlns="http://www.w3.org/2000/svg" width="195.149" height="104" viewBox="0 0 195.149 104">
  <g id="tentaculo-logo" transform="translate(0 -0.018)">
    <g id="_2407532472976" transform="translate(0 0.018)">
      <path id="Caminho_5" data-name="Caminho 5" d="M40.253,534.954H24.113v.244c0,3.18,2.494,5.234,6.31,5.234a15.732,15.732,0,0,0,7.972-2.152l1.859,5.234a18.618,18.618,0,0,1-9.83,2.592c-7.434,0-12.375-3.864-12.375-12.961v-.831c0-9.39,4.5-13.255,11.1-13.255S40.3,522.924,40.3,532.314v2.641h-.049ZM0,512.162H5.919v7.728H15.8v5.673H5.919v10.956c0,2.788,1.271,3.815,3.227,3.913a9.08,9.08,0,0,0,2.543-.2,9.46,9.46,0,0,0,4.5-1.908c.635,1.761,1.223,3.522,1.859,5.233a14.393,14.393,0,0,1-8.511,2.592C4.06,546.154,0,543.562,0,536.47V524.1l5.919-4.206H0v-7.728H0Zm67.055,0h5.919v7.728h9.879v5.673H72.974v10.956c0,2.788,1.271,3.815,3.227,3.913a9.08,9.08,0,0,0,2.543-.2,9.46,9.46,0,0,0,4.5-1.908c.635,1.761,1.223,3.522,1.859,5.233a14.439,14.439,0,0,1-8.559,2.592c-5.479,0-9.488-2.592-9.488-9.684V524.1l5.919-4.206H67.055v-7.728h0Zm105.84,20.2c0-9.39,4.842-13.255,11.1-13.255s11.151,3.864,11.151,13.255v.587c0,9.39-4.842,13.255-11.151,13.255s-11.1-3.863-11.1-13.255Zm16.238,0c0-5.821-1.957-7.582-5.135-7.582s-5.086,1.761-5.086,7.582v.587c0,5.82,1.908,7.581,5.086,7.581s5.135-1.761,5.135-7.581Zm-30.96-22.792h5.919v27.145c0,2.836,1.271,3.766,3.227,3.766a5.406,5.406,0,0,0,3.227-1.026l1.859,5.184a11.068,11.068,0,0,1-5.917,1.517c-4.744,0-8.266-2.494-8.266-9.488v-27.1h-.049Zm-2.348,34.236c-2.445,1.369-6.7,2.3-10.858,2.3-6.505,0-11.3-4.109-11.3-13.255v-13.3h5.87v13.695c0,5.428,2.3,7.141,5.87,7.141a12.125,12.125,0,0,0,4.5-.686V519.5h5.919v24.211h0v.1Zm-45.632-11.445c0-9.586,5.086-13.255,12.129-13.255a16.336,16.336,0,0,1,9.1,2.592c-.733,1.761-1.419,3.522-2.152,5.184a12.978,12.978,0,0,0-6.945-2.1c-3.619,0-6.114,1.859-6.114,7.582v.587c0,5.723,2.494,7.581,6.114,7.581a12.443,12.443,0,0,0,6.945-2.152c.733,1.761,1.419,3.521,2.152,5.233a16.336,16.336,0,0,1-9.1,2.592c-6.994,0-12.129-3.669-12.129-13.255v-.587h0Zm-2.4,11.445a24.524,24.524,0,0,1-11.054,2.3c-5.674,0-11.151-2.836-11.151-9v-.293c0-5.086,4.549-7.874,12.227-8.118l4.06-.147v-.93c0-2.348-2.2-3.081-5.575-3.081a17.378,17.378,0,0,0-7.728,1.712l-2.005-4.793a19.7,19.7,0,0,1,10.124-2.592c6.31,0,11.1,2.494,11.1,9.635v15.358h0v-.049Zm-5.917-10.614-4.06.1c-4.06.147-6.31,1.223-6.31,3.522v.293c0,2.348,2.348,3.327,5.331,3.327a14.854,14.854,0,0,0,4.988-.686v-6.6h0l.049.049ZM42.6,521.943c2.445-1.37,6.7-2.3,10.858-2.3,6.505,0,11.3,4.109,11.3,13.255v13.3h-5.87V532.508c0-5.428-2.3-7.141-5.87-7.141a12.125,12.125,0,0,0-4.5.686v20.2H42.6V522.042h0v-.1ZM24.114,530.5H34.14v-.244c0-3.718-2.1-5.526-4.988-5.526s-4.988,1.81-4.988,5.526v.244h-.049Z" transform="translate(0 -442.253)" fill="#fff"/>
      <g id="Grupo_4" data-name="Grupo 4" transform="translate(61.02 0)">
        <path id="Caminho_6" data-name="Caminho 6" d="M535,41.78,516.585,68.79l-18.14,26.6L461.89,41.78H535Zm-36.336,4.949H471.249l13.709,20.042,13.706,20.04,13.706-20.04L526.08,46.729Z" transform="translate(-461.89 -36.263)" fill="#fff"/>
        <path id="Caminho_7" data-name="Caminho 7" d="M609.8,11.636a8.684,8.684,0,0,0,3.3,3.072,14.506,14.506,0,0,0,5.155,1.5h.018A7.776,7.776,0,0,0,624.2,13.8a7.692,7.692,0,0,0,1.351-1.807,5.318,5.318,0,0,0,.624-2A3.866,3.866,0,0,0,625,6.8a2.045,2.045,0,0,0-1.161-.605,1.49,1.49,0,0,0-1.093.325l.055.162h-4.99l.2-.162a4.623,4.623,0,0,1,.361-.99,4.059,4.059,0,0,1,.68-.97.162.162,0,0,0,.021-.193l-.03-.05A.233.233,0,0,1,619,4.1a2.255,2.255,0,0,1,.735-.678,10.9,10.9,0,0,1,1.609-.919c.592-.24.836-.022,1.258.357l.026.02a.166.166,0,0,0,.153.009,6.652,6.652,0,0,1,.622-.259,6.149,6.149,0,0,1,.624-.189A.174.174,0,0,0,624.1,2.4a.821.821,0,0,1,.532-.169,3.394,3.394,0,0,1,.993.132.162.162,0,0,0,.2-.112l.029-.071a.486.486,0,0,0,.048-.4l0-.007a.254.254,0,0,1-.005-.176.435.435,0,0,1,.3-.192h.005a2.268,2.268,0,0,1,.708-.052,4.834,4.834,0,0,1,2.7,1.041c.4.341.378.494.273.618l-.119.124a.666.666,0,0,0-.244.807l.036.082a1.605,1.605,0,0,0,.587.6.989.989,0,0,0,.839.141l.382-.185a1.015,1.015,0,0,1,.971.449,3.36,3.36,0,0,1,.749,1.811.984.984,0,0,1-.353.986.163.163,0,0,0-.067.211,11.538,11.538,0,0,1,.417,1.091,3.242,3.242,0,0,1,.174.68.163.163,0,0,0,.162.162l.029,0a.8.8,0,0,1,.761.334,1.826,1.826,0,0,1,.289.842,3.911,3.911,0,0,1-.037,1.111,2.567,2.567,0,0,1-1.219,2.019.159.159,0,0,0-.106.136,7.568,7.568,0,0,1-.258,1.3,8.05,8.05,0,0,1-.468,1.27.164.164,0,0,0,0,.129l.011.028a2.343,2.343,0,0,1-.616,1.961,4.848,4.848,0,0,1-1.727,1.517l-.052.021a.161.161,0,0,0-.077.065c-.165.244-.354.494-.552.737-.229.281-.474.559-.712.815a.159.159,0,0,0-.033.166,1.493,1.493,0,0,1-.193,1.275,4.29,4.29,0,0,1-1.09,1.2,6.16,6.16,0,0,1-1.571.888l-.007,0a3,3,0,0,1-2.478.048.168.168,0,0,0-.144-.008l-.659.255a.162.162,0,0,0-.092.209l.005.013c.186.375-.016.757-.435,1.091a4.754,4.754,0,0,1-1.5.74,6.838,6.838,0,0,1-1.864.314c-1.048.02-1.947-.263-2.115-1.008a.166.166,0,0,0-.074-.1,9.434,9.434,0,0,0-1.68-.608,17.627,17.627,0,0,0-2.164-.513h-.044a8.113,8.113,0,0,1-2.126-.074,4.763,4.763,0,0,1-1.663-.581,3.9,3.9,0,0,1-.334-.235.162.162,0,0,0-.248.2,1.63,1.63,0,0,1,.149.423.687.687,0,0,1-.009.313,3.278,3.278,0,0,1-.151.419,3.959,3.959,0,0,1-.23.432.164.164,0,0,0,.057.223,11.126,11.126,0,0,1,1.423.972,6.511,6.511,0,0,1,1.289,1.374.162.162,0,0,0,.226.042,2.581,2.581,0,0,1,.789-.4h.007a.624.624,0,0,1,.657.194,12,12,0,0,1,.9,1.21l.005.007a7.964,7.964,0,0,1,.659,1.156l0,.009c.275.708-.353.993-.933,1.258-.169.077-.336.153-.484.238a.163.163,0,0,0-.059.221l.144.217a4.391,4.391,0,0,1,.569,1.688,1.519,1.519,0,0,1-.432,1.435l-.079.053a.158.158,0,0,0-.075.108,6.017,6.017,0,0,1-.173.674c-.071.231-.152.457-.23.67a.16.16,0,0,0,.1.206l.128.032c.353.085.864.21,1.005.468a2.946,2.946,0,0,1-.041,1.624,11.922,11.922,0,0,1-.883,2.644l-.007.012c-.469.832-1.264.709-2.066.585l-.292-.044a.162.162,0,0,0-.184.132c-.05.182-.111.375-.177.569l-.211.579a.163.163,0,0,0,.028.164,4.4,4.4,0,0,0,.675.628c.443.349.585.464-.307,1.716a7.711,7.711,0,0,1-1.285,1.534,1.151,1.151,0,0,1-1.32.176.163.163,0,0,0-.2.049l-.695.91a.16.16,0,0,0,.03.226l.019.012a6.356,6.356,0,0,1,2.74,3.081,5.135,5.135,0,0,1,.108,3.316v.005a6.7,6.7,0,0,1-1.869,2.959,8.088,8.088,0,0,1-4.822,2.12l-.341.022a8.169,8.169,0,0,1-4.929-1.411,5.764,5.764,0,0,1-2.581-4.237l-.018-.26a.163.163,0,0,0-.172-.155c-3.3.218-5.8,1.119-7.456,2.822s-2.459,4.2-2.358,7.608a1.979,1.979,0,0,1-.5,1.422,1.228,1.228,0,0,1-.634.366,1.251,1.251,0,0,1-.793-.112,4.181,4.181,0,0,1-1.75-2.23l-.007-.013a7.983,7.983,0,0,1-.946-3.759,11.5,11.5,0,0,1,.836-4.337.162.162,0,0,0-.091-.21l-.013,0a.52.52,0,0,1-.289-.608v0a2.436,2.436,0,0,1,.347-.931l0-.009a3.421,3.421,0,0,1,.723-.859c.437-.365.93-.538,1.307-.254a.162.162,0,0,0,.223-.028,7.02,7.02,0,0,1,.974-.966,10.01,10.01,0,0,1,1.266-.9.161.161,0,0,0-.021-.288l-.1-.053-.061-.054c-.132-.166-.065-.382.125-.606a3.748,3.748,0,0,1,1.108-.8A6.484,6.484,0,0,1,588,50.759c.645-.144,1.185-.132,1.3.162a.162.162,0,0,0,.211.091c.472-.169,1-.33,1.5-.466.542-.147,1.046-.26,1.407-.32a.163.163,0,0,0,.133-.185.153.153,0,0,0-.028-.067.24.24,0,0,1-.021-.3,1.766,1.766,0,0,1,.96-.444,7.75,7.75,0,0,1,1.669-.173c1.111,0,2.164.209,2.239.666a.162.162,0,0,0,.3.053,19.548,19.548,0,0,0,2.7-7.38,7.7,7.7,0,0,0-2.735-6.961.162.162,0,0,0-.227.016l-.011.013a9.029,9.029,0,0,1-.7.9,7.481,7.481,0,0,1-5.414,2.566,9.77,9.77,0,0,1-5.819-1.8,11.386,11.386,0,0,1-1.11-.871,16.21,16.21,0,0,1-2.834-3.082,16.963,16.963,0,0,1-1.883-3.843l0-.007a15.575,15.575,0,0,1-.845-6.418,20.985,20.985,0,0,1,1.778-6.961l0-.007c.592-1.207,1.254-2.415,1.976-3.592q.216-.353.44-.7H609.8Zm-7.483,11c-.488-.229,1.218-1.371-.153-2.124a13.254,13.254,0,0,0-2.223-.877l-.137-.044.052-.135a5.59,5.59,0,0,1,.569-1.081l.1-.149.119.135a31.832,31.832,0,0,0,5.048,4.621l.178.129-1.456.774-.069-.049a15.307,15.307,0,0,0-2.024-1.2Z" transform="translate(-563.311 -1.17)" fill="#00e980" fill-rule="evenodd"/>
        <g id="Grupo_3" data-name="Grupo 3" transform="translate(15.277)">
          <path id="Caminho_8" data-name="Caminho 8" d="M630.537,8.741a1.576,1.576,0,0,0-.454-1.507ZM614.209,24.327a13.539,13.539,0,0,0,4.155-.956Zm-7.64-2.5a1.327,1.327,0,0,0-.38-.262Zm-.207-.185a21.287,21.287,0,0,0-2.662-1.987Zm16.908-1.663c.252-.238.515-.484.753-.736l0,0-.749.738Zm-.046-.288.621-.575-.118-.1Zm-.115-.268.519-.493-.123-.115-.4.609Zm-.173-.221.485-.472-.032-.03Zm-.215-.18.5-.5-.114-.12Zm-.252-.145.554-.563-.078-.074-.476.637Zm-.308-.119.687-.614-.1-.135-.589.749Zm-.326-.079c.3-.258.581-.518.865-.79Zm-.4-.271-.273.226a1.581,1.581,0,0,0,.77-.411Zm5.549.765a13.2,13.2,0,0,1-1.349,1.342Zm.654.135-.194-.2a12.913,12.913,0,0,1-1.243,1.308l1.437-1.111Zm.032.032a11.1,11.1,0,0,1-1.034,1.1l.188.038.846-1.134Zm.248.2a10.564,10.564,0,0,1-.93.987ZM620.34,24.31A3.275,3.275,0,0,0,621.7,23.9Zm1.4-.634a7.753,7.753,0,0,0-1.892.579l.287.018Zm6.024-9.006a12.281,12.281,0,0,0,.72-1.182h-.022l-.7,1.185Zm-.39-.059h.038a11.36,11.36,0,0,0,.745-1.213l-.058-.025Zm-.308-.066a11.718,11.718,0,0,0,.779-1.263l-.243-.1-.535,1.361Zm-.337-.079a8.885,8.885,0,0,0,.807-1.307Zm-.313-.114a11.04,11.04,0,0,0,.8-1.292Zm3.255-5.915c-.016-.186-.041-.367-.071-.538l-.114.092Zm-.215-.058-.045-.346Zm-.914.111a.7.7,0,0,0,.066-.5l-.082-.009.014.51Zm-.359-.506a.874.874,0,0,0-.05.591l.1-.021-.048-.569Zm.153.547a.838.838,0,0,0,.058-.559h-.048l-.011.561Zm-.41.085a1.145,1.145,0,0,0,.041-.668Zm-.046-5.891-.2.044a4.856,4.856,0,0,1,.473.345Zm-.251.05c.275.48.974.963,1.365,1.531l-1.365-1.531Zm-.992.872c.092.264.506.591.717.824Zm.173-.1c.078.251.519.606.723.834Zm.387-.255a1.326,1.326,0,0,0,.51.993Zm.225-.242A5.1,5.1,0,0,1,628.6,4.114l.085.036-1.258-1.1Zm-.114-.038a.44.44,0,0,1-.029.155c.425.209.81.41.909.909l-.881-1.063Zm-.156,1.521a2.41,2.41,0,0,0-.659-.77Zm-.555-.157-.3-.292Zm.312.181h.1a5.852,5.852,0,0,0-.641-.654l.538.653Zm3.3,2.218a5.385,5.385,0,0,1,.668,2.181Zm.613.057-.052,0a9.807,9.807,0,0,1,.517,2.024l.02-.005Zm.106,0a5.822,5.822,0,0,1,.563,1.971h.007l-.569-1.97Zm.2,2.064a5.659,5.659,0,0,0-.464-2.046l-.016,0Zm-.581,3.94a7.52,7.52,0,0,1-.962,2.39Zm.289.075a7.222,7.222,0,0,1-.913,2.37l.065.029.848-2.4Zm.285.1a7.024,7.024,0,0,1-.886,2.369ZM580.444,57.509c.132-.284.267-.535.388-.744l-.053,0Zm14.245-6.961.528.054.012-.017-.54-.036Zm-.008-.429c.258.013.536.049.793.083Zm-6.084.641a15.88,15.88,0,0,1,4.225-.691Zm13.352-24.923c.614.424,1.3.822,1.971,1.256Zm-4.336-4.724a11.111,11.111,0,0,1,7.617,4.667Zm8.731,4.751A17.425,17.425,0,0,0,604.8,24.27Zm-1.571.112a3.5,3.5,0,0,0-1.556-1.124l-.048.054,1.6,1.07Zm-2.1-.637a15.61,15.61,0,0,0,1.714,1.213Zm1.879.906a3.857,3.857,0,0,0-1.591-1.141l-.137.12,1.728,1.023Zm-2.836-13.44a38.454,38.454,0,0,0-3.838,4.208Zm-3.848,9.133-.518-.038Zm11.92,8.795a2.5,2.5,0,0,0-.406-.9Zm-.633-.782c-.1.5.424,1.159.661,1.63l.063-.018-.724-1.61Zm.367,1.79a6.817,6.817,0,0,0-.713-1.63l-.306.12Zm-.355.181a6.52,6.52,0,0,0-.719-1.671Zm-.37.137a6.3,6.3,0,0,0-.711-1.675l-.131.046.841,1.63Zm.749,4a13.616,13.616,0,0,1-.029,2.888Zm.341.022a15.584,15.584,0,0,1-.295,4.551Zm.341.029a13.2,13.2,0,0,1,.03,2.005ZM582.359,66.452c-1.081-1.655-.942-4.982-.485-6.908l-.025-.011a11.406,11.406,0,0,0-.482,3.616,11.676,11.676,0,0,1,.255-3.7l-.021-.008a12.064,12.064,0,0,0-.513,3.267,10.969,10.969,0,0,1,.284-3.36l-.059-.03a12.133,12.133,0,0,0-.456,3.064,10.6,10.6,0,0,1,.223-3.074.646.646,0,0,1-.233-.062c-.061.211-.075.227.037.019a10.478,10.478,0,0,0,.391,5.7c.114.285.476.849.042.332-1.355-1.556-1.419-4.58-.812-6.5l-.021-.144a7.242,7.242,0,0,0,.634,6.526.511.511,0,0,1-.168-.188,7.8,7.8,0,0,1,.243-8.332l-.129.057L581,56.94a7.748,7.748,0,0,0-.165,8.06c.168.262,1.108,1.46,1.523,1.451Zm21.5-53.52c4.144,3.788,10.15,5.472,15.564,3.522l-.514.059a14.829,14.829,0,0,1-14.528-3.988q-.264.2-.523.408Zm5.07-2.444c1.839,2.869,4.913,4,8.279,4.414,3.2.189,7.014-2.345,7.66-5.487a4.033,4.033,0,0,0-1.048-3.642,1.477,1.477,0,0,0-2.086-.234h-1.178a3.251,3.251,0,0,1,.923-.8,4.353,4.353,0,0,0-1.485.8h-.3a5.162,5.162,0,0,1,5.457-.991,2.562,2.562,0,0,0-.509-.354,5.223,5.223,0,0,0-5.487,1.345h-.115a5.037,5.037,0,0,1,4.613-1.8,7.048,7.048,0,0,0-1.447-.337,5.694,5.694,0,0,0-2.751.935,6.317,6.317,0,0,1,3.9-1.112,18.24,18.24,0,0,1,1.938.425c-.2-.059-.383-.131-.575-.2.239-.024.873.3,1.171.1a5.894,5.894,0,0,1-1.177-.354c.024,0,.457.119.9.172l.436.03c-.465-.2-.876-.357-1.344-.585v0c.7.32,3.135.744,1.313-.4a5.117,5.117,0,0,0-2.576-.842c.038.386.674.933,1.008,1.114l0,0a11.847,11.847,0,0,1-1.2-.593c.181.174.834.63.872.686a6.907,6.907,0,0,1-1.074-.645c-.155.19.7.622.777.744l-.717-.4h0a2.984,2.984,0,0,0,.39.513c-.314-.116-.953-.478-.894-.9a6.4,6.4,0,0,0-1.8.705,7.1,7.1,0,0,1,1.554-.2,6.4,6.4,0,0,0-4.591,2.951h-1.012a4.491,4.491,0,0,1,1.128-2.233c-.085-.143-.155-.231-.089-.408.2-.521,1.995-1.511,2.435-1.688.688-.279.959-.036,1.429.388a6.728,6.728,0,0,1,1.277-.458c.355-.355,1.268-.2,1.684-.078.025-.1.136-.229.082-.378-.229-.639.916-.686,1.231-.659a5.671,5.671,0,0,1,2.724,1.093c1.067.9-.342.888-.044,1.617.156.411.849.935,1.3.712l.337-.165c1.336-.379,2.655,2.9,1.5,3.539a8.66,8.66,0,0,1,.608,1.842c1.931-.2,1.458,4.048-.123,4.617a8.574,8.574,0,0,1-.741,2.626c.5,1.194-1.367,3.316-2.473,3.735a13.566,13.566,0,0,1-1.281,1.579c.729,1.918-3.546,4.763-5.567,3.608l-.666.258c.429.859-1,1.692-1.583,1.929-1.094.431-4.271.934-4.636-.683a17.767,17.767,0,0,0-3.778-1.1,6.73,6.73,0,0,1-3.9-.676,2.857,2.857,0,0,1-.363-.258c.038.071.07.141.1.209a.882.882,0,0,1,.061.653,3.455,3.455,0,0,1-.4.889,8.467,8.467,0,0,1,2.765,2.4,3.107,3.107,0,0,1,.927-.45.8.8,0,0,1,.738.267,11.733,11.733,0,0,1,1.595,2.418c.427,1.077-.787,1.305-1.482,1.7.617.831,1.258,2.939.145,3.612a9.092,9.092,0,0,1-.41,1.369c.378.094,1.026.221,1.221.575.443.812-.518,3.689-.923,4.422-.581,1.052-1.573.769-2.531.634a11.89,11.89,0,0,1-.4,1.178c.926,1.082,1.7.687.376,2.542a11.078,11.078,0,0,1-1.336,1.579,1.209,1.209,0,0,1-1.47.182l-.7.913c3.782,2.322,4.294,6.732.839,9.748a8.318,8.318,0,0,1-4.749,2.034c-3.677.329-7.867-2.016-8.043-6.039-6.52.431-9.862,3.543-9.664,10.264.065,1.857-1.56,2.564-2.88,1.325a4.737,4.737,0,0,1-1.1-1.81,9.8,9.8,0,0,1-.119-8.234c-1.346-.48.931-3.934,2.237-2.949a9.071,9.071,0,0,1,2.283-1.9.566.566,0,0,1-.223-.156c-.869-1.1,3.84-3.126,4.3-1.958a19.325,19.325,0,0,1,2.945-.8c-.925-1.295,4.924-1.659,5.138-.375,2.6-4.582,4.545-10.215,0-14.14-3.321,4.827-9.343,4.328-13.282.816a14.915,14.915,0,0,1-4.763-6.991c-1.6-4.411-.925-9.29.934-13.5h0a43.191,43.191,0,0,1,2.375-4.234h1.877c-2.658,3.936-4.624,8.558-4.346,13.306a26.254,26.254,0,0,1,4.526-13.306h.871a25.649,25.649,0,0,0-5.181,15.169,14.622,14.622,0,0,0,3.8,7.673c2.406,2.4,5.561,4.463,9.092,2.912a7.435,7.435,0,0,0,3.745-3.9,3.909,3.909,0,0,1,3.073-2.19,4.045,4.045,0,0,1,3.226,1.4,7.486,7.486,0,0,0-1.554-.575c6.2,4.958,5.167,11.746,1.081,17.569.1-.229.165-.469.242-.7,2.094-3.41,3.418-7.09,2.2-11.118l.087.869a10.909,10.909,0,0,0-4.354-6.041.481.481,0,0,0,.111.267c2.74,2.291,4.143,4.917,3.793,8.43a9.861,9.861,0,0,0-.1-2.024,10.085,10.085,0,0,0-4.179-6.22l.2.349h0c3.585,3.11,4.372,6.88,3.012,11.272,0-.338.008-.65-.022-.987a9.069,9.069,0,0,0-3.574-9.837L600,33.934l-.009-.007a7.719,7.719,0,0,1,2.254,5.989,9.225,9.225,0,0,0-.211-1.813,8.859,8.859,0,0,0-3.369-4.871,10.27,10.27,0,0,0,.708,1.19,8.605,8.605,0,0,1,2.5,7.587,6.945,6.945,0,0,0-.266-.912,8.3,8.3,0,0,0-.145-1.811,8.2,8.2,0,0,0-2.527-4.506c4.132,5.118.552,12.018-2.583,16.664a8.616,8.616,0,0,0-1.041,1.889,4.735,4.735,0,0,0,1.925,5.627,5.607,5.607,0,0,1-.8-2.083,5.852,5.852,0,0,0,1,2.222,6.009,6.009,0,0,0,.682.382,5.188,5.188,0,0,1-1.32-3.118,7.821,7.821,0,0,0,.233,1.037,5.139,5.139,0,0,0,1.416,2.223,6.658,6.658,0,0,0,.836.275,4.91,4.91,0,0,1-1.979-4.27c.067.394.07.789.153,1.221a4.744,4.744,0,0,0,2.211,3.089,2.135,2.135,0,0,0,.914.16,4.571,4.571,0,0,1-2.655-4.94c.038-.667.018-.213.02.092.025,2.09.649,3.731,2.827,4.665a1.485,1.485,0,0,0,1.192.112c-3.179-.851-3.945-3.542-3.093-6.343.03-.092-.126.745-.153,1.011-.3,2.922,1.107,4.772,4.065,5.142l.453-.149c-2.242-.219-3.941-1.359-3.979-3.814a9.168,9.168,0,0,1,.785-3.5,14.812,14.812,0,0,0-.511,2.034c-.355,2.595.546,4.513,3.414,4.823,1.962.211,3.887-1.914,4.309-3.689a4.414,4.414,0,0,0-.416-3.2,5.372,5.372,0,0,1-1.185,5.106,12.8,12.8,0,0,1-1.025,1.013,7.526,7.526,0,0,0,1.515-2.241,5,5,0,0,0-1.462-5.745l-.044.057a4.707,4.707,0,0,1,.477,6.155,11.009,11.009,0,0,1-.82.963l.247-.351a4.493,4.493,0,0,0-.336-6.059,4.034,4.034,0,0,1,0,4.957c-.1.131-1.141,1.371-.521.53a3.833,3.833,0,0,0-.026-4.917l-.087.114c.5.5,1.1,1.731.1,2.024a.907.907,0,0,1-.287.032c.811.68.276.254-.12-.012A1.146,1.146,0,0,1,603,53.9a4.706,4.706,0,0,1,.659.569,7.657,7.657,0,0,0-.778-.544c-.189-.114-.382-.218-.538-.293l-.016.024a5.783,5.783,0,0,1,1.185.925,7.2,7.2,0,0,0-.753-.526c-.177-.108-.359-.206-.509-.279l-.016.024a5.6,5.6,0,0,1,1.132.892,9.54,9.54,0,0,0-1.208-.77,3.077,3.077,0,0,1,1.551,1.588c.177.507.075,1.071-.5,1.215a1.714,1.714,0,0,1-1.842-.8l0,.118c.6.8,1.31,1.173,2.221.668a1.6,1.6,0,0,1-2.189-.4.878.878,0,0,0,.082.227,1.853,1.853,0,0,0,1.957.494l-.03.034a1.771,1.771,0,0,1-1.662-.174,1.343,1.343,0,0,0,1.414.443c-.235.248-1-.071-1.35-.1-1.562-.25-1.852-1.441-1.315-2.905.877-2.3,2.893-4.286,4.39-6.263,3.813-5.136,4.6-9.526,2.278-15.358l-.308-.782a15.3,15.3,0,0,1,1.02,1.5,1.7,1.7,0,0,1,.2-.873,3.869,3.869,0,0,1-.39-1.177,8.483,8.483,0,0,0,.729.811l0,0a6.345,6.345,0,0,0-.7-1.68c-1.268.521-2.387-.69-3.333-1.367a17.978,17.978,0,0,0-8.071-3.078c-.114.532-.168,1.1-.287,1.639a14.539,14.539,0,0,1-.041-5.106,11.162,11.162,0,0,0-.647,5.756l-.1-.012c-.906-4.312.7-7.3,2.773-10.908l.18-.268-.667.79a24.151,24.151,0,0,1,3.2-3.76c.092-.106.925-1.013.93-1.034-3.815,3.515-7.725,7.82-7.789,13.346a13.586,13.586,0,0,0,.225,2.469l-.074-.011c-1.5-5.6,1.56-10.564,5.028-14.718-.609.63-1.19,1.272-1.768,1.93a44.351,44.351,0,0,1,4.381-4.785l-.021-.05a61.05,61.05,0,0,0-4.645,4.694,30.169,30.169,0,0,1,2.444-2.825,26.673,26.673,0,0,0-6.314,9.092,17.941,17.941,0,0,0-.756,2.776,14.562,14.562,0,0,1,.686-3.266,25.149,25.149,0,0,1,4.679-7.939c-.7.791-1.355,1.6-2,2.426a52.3,52.3,0,0,1,4.587-5.554,28.108,28.108,0,0,0-2.288,2.338c-.912,1-1.761,2.023-2.592,3.083.665-.979,1.465-1.966,2.225-2.876-3.045,3.2-5.4,6.52-6.471,10.879-.03.149-.229,1.334-.132.5a18.79,18.79,0,0,1,3.017-7.925,37.477,37.477,0,0,1,5.094-6.262h-.334c-.445.448-.935.951-1.4,1.474a39.384,39.384,0,0,0-2.731,3.493c.819-1.063,1.654-2.1,2.57-3.087.617-.671,1.258-1.25,1.894-1.88h9.747Zm-10.19,0c-.592.56-1.174,1.123-1.732,1.731-.921.991-1.761,2.036-2.584,3.106a40.31,40.31,0,0,1,3.415-4.239c-3.093,3.156-6.537,7.771-7.425,12.011-.4,1.937-.351,5.847,1.005,7.435.336.379.86.2,1.316.149-1.016.609-1.5.478-2.134-.661-1.2-2.131-1.2-5.389-.7-7.761a22.955,22.955,0,0,1,3.682-7.473c-.3.4-.6.818-.892,1.227.049-.086,1.139-1.794,2.406-3.39.557-.709,1.147-1.394,1.642-1.931a1.745,1.745,0,0,0-.289.218,43.844,43.844,0,0,0-4.057,4.982c.049-.086,1.143-1.8,2.419-3.408.431-.547.935-1.079.044-.227-2.548,2.942-5.668,7.5-6.043,11.718a12.032,12.032,0,0,0,.959,6.156c.908,1.75,1.976,1.9,3.441,1.057a5.291,5.291,0,0,1-.842.672c-1.824.469-2.83-.955-3.441-2.548-2.031-5.295.11-10.453,3.139-14.853-.511.655-.979,1.324-1.451,2.005a27.555,27.555,0,0,1,2.737-3.866l.14-.306a36.293,36.293,0,0,0-3.179,4.056,29.557,29.557,0,0,1,3.514-4.785l.067-.149a27.45,27.45,0,0,0-5.287,7.953,13.282,13.282,0,0,0-1.017,7.991c.287,1.624.954,3.649,2.382,4.678a5.528,5.528,0,0,1-1.617-1.258,12.506,12.506,0,0,1-1.569-6.81c.164-3.987,2.519-8.142,4.808-11.206l-.4.476a30.055,30.055,0,0,1,2.215-2.748h5.327Zm-5.492,0c-.81.831-1.57,1.688-2.34,2.612a23.04,23.04,0,0,1,2.111-2.612h.23Zm-.435,0a26.694,26.694,0,0,0-3.259,4.044c-2.739,4.158-4.411,8.324-3.282,13.3q-.462-.846-.836-1.715a14.837,14.837,0,0,1,1.55-8.549,32.264,32.264,0,0,1,4.567-7.085h1.262Zm-1.288,0-.326.332c.09-.111.182-.221.276-.332Zm13.019,11.457a32.086,32.086,0,0,1-5.07-4.641,5.442,5.442,0,0,0-.556,1.053,15.19,15.19,0,0,1,2.248.888c1.39.764-.041,2.033.145,2.12a15.387,15.387,0,0,1,2.046,1.21,5.954,5.954,0,0,1,.766-.473,1.47,1.47,0,0,1,.419-.157Zm-3.006-7.01c3.677,3.153,8.279,4.6,13.405,4.878a7.778,7.778,0,0,0,3.1-.295c-.761.38-1.986,1.366-1.922,2.325a.686.686,0,0,0,.188.456c1.482,1.387,6.888-1.242,5.928-2.683a1.943,1.943,0,0,0-1.219-.575,5.088,5.088,0,0,0-2.79.387,10.539,10.539,0,0,1,1.691-.609,28.182,28.182,0,0,0,2.64-1.777,2.972,2.972,0,0,1,.882-.746,1.706,1.706,0,0,0-.23.74h0l-.015.217c.1-.174.217-.33.333-.5.015.2-.49.69-.215,1.048a4.961,4.961,0,0,1,.62-1.048,9.287,9.287,0,0,0-.419,1.23l.089.086a5.874,5.874,0,0,1,.818-1.458c0,.127-.772,1.523-.507,1.789a4.723,4.723,0,0,1,.832-1.562l.016,0c-.264.432-.822,1.843-.188,2.189l-.015-.008c1.246.35,3.7-3.379,2.891-3.855l.014.009c-.6-.3-1.957.724-2.329,1.152l-.005,0a6.328,6.328,0,0,1,1.345-1.4c-.2-.058-1.388,1.054-1.526,1.114a6.96,6.96,0,0,1,1.225-1.222l-.09-.036c-.133.074-.277.162-.42.262-.445.31-.839.692-.867.7a6.765,6.765,0,0,1,.978-1.005.511.511,0,0,0-.321.079,10.051,10.051,0,0,0-.816.642c.151-.181.3-.354.461-.523-.358.165-.688.374-1.033.536a2.782,2.782,0,0,1,1.208-1.334,6.48,6.48,0,0,1,1.242-1.728,2.1,2.1,0,0,1,.036-1.357,3.074,3.074,0,0,0,.4,1.189,3.763,3.763,0,0,1,.007-1,6.253,6.253,0,0,0,.349,1.3l.092.011a3.487,3.487,0,0,1-.074-1.447,8.523,8.523,0,0,0,.307,1.295,6.155,6.155,0,0,1,.143-1.259l.02.005c-.03.519.165,1.563.736,1.758.267.112.855-1.13.919-1.309a3.774,3.774,0,0,0,.075-2.626,1.19,1.19,0,0,0-.2-.17h.018c-.646-.041-1.324,1.264-1.461,1.8l-.009,0a4.948,4.948,0,0,1,.524-1.6,4.153,4.153,0,0,0-.263.382,10.221,10.221,0,0,0-.477.953,5.648,5.648,0,0,1,.493-1.394c-.432.09-.588,1-.777,1.172a7.153,7.153,0,0,1,.223-.768,2.316,2.316,0,0,1-.728.826c.042-.262.161-.547.206-.814a4.267,4.267,0,0,0-.02-2.2,8.857,8.857,0,0,1-.361,3.253c-1.295,4.414-5.88,7.982-10.9,8.784-.3.057-.583.065-.864.111h0a17.561,17.561,0,0,1-4.229-.369,18.514,18.514,0,0,1-8.685-4.457q-.246.224-.48.447Zm1.136-1.026A17.332,17.332,0,0,0,617.6,18.062l.417-.236a16.516,16.516,0,0,1-14.84-4.34q-.254.21-.5.421Zm14.836,12.835a4.766,4.766,0,0,0,2.871-1.016,1.408,1.408,0,0,0,.252-.5v0a1.216,1.216,0,0,0-.661-.564,3.465,3.465,0,0,0-3.84.876c-.382.51-.177.765-.178.764.263.412,1.132.452,1.558.444Zm-4.126-1.962s.843-.094,1.854-.275A15.6,15.6,0,0,0,618.77,23.5a5.112,5.112,0,0,1-.768.363l.3-.086a3.225,3.225,0,0,1-.47.346,10.788,10.788,0,0,0,1.135-.4l-.1.057a22.716,22.716,0,0,0,4.119-1.713,50.91,50.91,0,0,1-6.277,2.655,43.588,43.588,0,0,0,5.669-2.065,6.332,6.332,0,0,1,.964-.861c-.554.263-1.083.509-1.651.746.728-.558,1.491-1.021,2.19-1.626a21.2,21.2,0,0,0,1.683-1.585,1.991,1.991,0,0,1-.773.189,25.246,25.246,0,0,1-2.066,1.741,7.115,7.115,0,0,1-4.154,2.017,17.437,17.437,0,0,1-5.107,1.466l-.081.037Zm2.5-.964a15.932,15.932,0,0,0,1.815-.49,4.212,4.212,0,0,1-.561-.045,19.706,19.706,0,0,1-2.534.686l-.1.1c.419-.067.9-.152,1.377-.254Zm-5.442.707a6.2,6.2,0,0,0,2.74-.547h0c.31,0,.914-.655.963-.991a1.281,1.281,0,0,0-.591-1.075,4.048,4.048,0,0,0-2.48-.779,6.952,6.952,0,0,1,2.789.464c.945.441,1.489,1.271.9,2.156a20.478,20.478,0,0,0,2.217-.49,2,2,0,0,1-1.266-.671c-.7-1.1.715-2.156,1.544-2.655-.377.169-.739.231-1.1.379a1.885,1.885,0,0,0-1.23,1.542,1.313,1.313,0,0,1,.445-1.445,20.875,20.875,0,0,1-6.991-.705c.58.337,1.174.646,1.779.934a20.56,20.56,0,0,1-2.046-1.005l-.834-.239a25.7,25.7,0,0,0,2.248,1.264,21.446,21.446,0,0,1-2.616-1.379l-.762-.256A31.069,31.069,0,0,0,609,20.711a23.827,23.827,0,0,1-3.3-1.857l-.7-.268a30.623,30.623,0,0,0,3.537,2.217c-.34.078-3.732-2.18-4.136-2.47l-.616-.28a32.077,32.077,0,0,0,4.357,2.875l-.061.022a32.061,32.061,0,0,1-5.066-3.271l-.387-.2a32.975,32.975,0,0,0,4.9,3.477c-.058-.033-.691-.357-1.558-.881a32.266,32.266,0,0,1-4.19-3.06l-.431-.254a33.286,33.286,0,0,0,5.88,4.364,1.518,1.518,0,0,1,.943-.129,1.729,1.729,0,0,0-.678.309,4.254,4.254,0,0,1,1.194-.386c-.349.129-1.468.35-1.57.857a3.554,3.554,0,0,1,1.847-.725,4.565,4.565,0,0,0-1.147.367,2.449,2.449,0,0,0-.717.526l.025.123a3.3,3.3,0,0,1,2.153-.856c-.761.207-1.4.2-2,.893a6.27,6.27,0,0,1,3.4-.959,4.451,4.451,0,0,0-3.209,1.452.87.87,0,0,0-.159.518c.107,1.124,2.3,1.4,3.127,1.414Zm-4.864-3.7c.378.236.753.468,1.141.69a1.034,1.034,0,0,1,.211-.211,31.7,31.7,0,0,1-5.361-3.657,20.091,20.091,0,0,0,4.008,3.179Zm-4.8-4.167a32.4,32.4,0,0,0,6.158,4.64,1.228,1.228,0,0,1,.289-.17,33.548,33.548,0,0,1-6.4-4.535c-.184-.161-.089.022-.044.066Zm22.086,4.407a18.457,18.457,0,0,0,1.7-1.556l-.152-.036c-.412.383-.838.753-1.27,1.112a2,2,0,0,1-.28.481Zm.338-.651c.362-.325.712-.661,1.056-1l-.114-.077-.889.8a1.5,1.5,0,0,1-.053.28Zm5.014-1.344a.335.335,0,0,0,.147.211c.931.015,2.655-2.393,2.362-3.271-.078-.128-.569.075-.683.127a3.187,3.187,0,0,0-1.235.941h0a6.582,6.582,0,0,1,1.124-1.317c-.256-.086-1.126.9-1.31,1a5.725,5.725,0,0,1,1.054-1.112c-.185-.092-1.114.908-1.258.99a6.88,6.88,0,0,1,.868-.96,2.769,2.769,0,0,0-1.1.823,5.231,5.231,0,0,1-.76,1.288c-.044.153-.1.424.034.546a5.907,5.907,0,0,1,.447-1c0,.049-.273.857-.309,1.137l.063.07a5.33,5.33,0,0,1,.493-1.155,11.846,11.846,0,0,0-.312,1.251,5.491,5.491,0,0,1,.753-1.271l.009,0a2.42,2.42,0,0,0-.384,1.7Zm-6.172,3.984a3.5,3.5,0,0,1,.275-.343A47.312,47.312,0,0,1,617.9,24.5a24.542,24.542,0,0,0,4.152-1.448Zm-.2.33.153-.264a29.2,29.2,0,0,1-2.879,1.167,4.16,4.16,0,0,1,.423-.03c.823-.288,1.63-.589,2.3-.871Zm3.827-2.451a4.326,4.326,0,0,0-2.326.853c-.595.458-1.7,1.872-.84,2.559l-.011-.009c1.169.766,4.375-1.351,4.35-2.8-.033-.573-.728-.625-1.172-.608Zm2.677-5.491c.281-.349.544-.715.823-1.069a2.319,2.319,0,0,1-.09.592,8.52,8.52,0,0,0,.647-1.053c-.351.4-.3.371-.145-.09a4.877,4.877,0,0,0,.268-1.264,1.648,1.648,0,0,1-1.3.931,11.156,11.156,0,0,1-.61,1.267.909.909,0,0,1,.41.686Zm2.357-2.906a4.282,4.282,0,0,1-.037-1.312,8.732,8.732,0,0,0,.267,1.341l.1.02a4.5,4.5,0,0,1,.1-1.428l.015,0a2.174,2.174,0,0,0,.28,1.18c.234.437.445.431.445.431.851-.48,1.378-3,.605-3.69h.018c-.6-.038-1.2,1.221-1.3,1.724h0a4.686,4.686,0,0,1,.469-1.613c-.242.081-.713,1.221-.812,1.325a4.655,4.655,0,0,1,.5-1.266c-.271.044-.621,1.063-.749,1.2a5.162,5.162,0,0,1,.445-1.165c-.268.016-.472.293-.6.5a4.745,4.745,0,0,1-.271,2.081,2.771,2.771,0,0,0,.234.436,5.506,5.506,0,0,1,0-1.074c.061.118.057,1.226.3,1.3Zm-.344-3.163a.893.893,0,0,1,.347-.346,5.42,5.42,0,0,0-.544-2.267,1.1,1.1,0,0,1-.21-.145,1.658,1.658,0,0,1-.312,1.241c.045.2.085.407.112.625a1.393,1.393,0,0,1,.606.892Zm-2.21-1.724.071-.02a3.227,3.227,0,0,1-.575-1c.024.016.412.575.551.713-.1-.291-.162-.622-.238-.925h.009a2.149,2.149,0,0,0,.651.9c.37.318.462.255.509-.176a3.674,3.674,0,0,0-.75-2.547c-.3-.273-.507.736-.523.875a2.173,2.173,0,0,0,.021.609h-.009a5.133,5.133,0,0,1-.23-1.188,9.459,9.459,0,0,0-.036,1.107,4.352,4.352,0,0,1-.162-1.042l-.106.05c-.03.19-.022.89-.025.9a4.234,4.234,0,0,1-.139-.77,2.3,2.3,0,0,0-.194.988,1.609,1.609,0,0,1-.2-1.054,2.919,2.919,0,0,1-.322-.057,5.672,5.672,0,0,1,.548,1.846,1.374,1.374,0,0,1,.209.161c-.172-.606.044-.1.25.159.519.63.078-.075-.036-.359a8.028,8.028,0,0,0,.723.838Zm-1.782-.572a2.927,2.927,0,0,0-.709-1.41,5.482,5.482,0,0,1,.568,3.732,6.629,6.629,0,0,0-.059-2,4.1,4.1,0,0,0-1.305-2.363A5.319,5.319,0,0,1,626.059,9.2a.678.678,0,0,0-.025.236c-.02-.026-.008-.059-.005-.09a5.117,5.117,0,0,0-1.746-4.568l-.112-.036c.078.09.211.2.3.288,3.521,4.017.234,8.183-3.588,10.4l-.295.243a11.311,11.311,0,0,0,3.161-2.245h0a1.449,1.449,0,0,1-.14.164A12.556,12.556,0,0,1,619.7,16.35a11.146,11.146,0,0,0,4.212-2.81h0c-.394.461-.737.752-1.163,1.176l.092-.067c1.946-1.667,3.6-4.066,3.69-6.459a6.7,6.7,0,0,0-.155-1.114Zm-6.95-4.069-.309.374a8.213,8.213,0,0,1,1.63-.581,6.185,6.185,0,0,1,1.9-.864l.025-.037a6.343,6.343,0,0,0-2.21.9,6.234,6.234,0,0,1,2.279-1.057l.009-.025c-.893.255-1.721.643-2.591.879a3.314,3.314,0,0,1,.813-.643l-.029-.028c-.258.077-.727.342-.864.37a5.2,5.2,0,0,1,.782-.447l-.033-.032c-.231.075-.724.345-.84.367a5.5,5.5,0,0,1,.757-.435c-.264-.147-1.916,1.03-2.167,1.271l.046.081a7.8,7.8,0,0,1,.731-.5c-.042.062-.547.46-.676.591l.04.071a7.635,7.635,0,0,1,.789-.54c-.037.059-.565.469-.715.633a4.781,4.781,0,0,1,.635-.347Zm6.436-1.436a4.7,4.7,0,0,1,.979.665c.149.034.723.147.831.053a5.987,5.987,0,0,1-1.1-.341,7.711,7.711,0,0,0,1.322.192,8.228,8.228,0,0,1-1.254-.44v0a3.738,3.738,0,0,0,.715.159c2.714.3-.791-1.308-2.011-1.217.075.375.741.831,1.081.976v0a10.579,10.579,0,0,1-1.291-.494l-.041.065c-.13,0,.7.347.768.383Zm4.467,2.213a1.829,1.829,0,0,0-.124,1.367H630.2a5.572,5.572,0,0,1-.332-1.079l-.008,0c-.049.32.026,1.111,0,1.2a5.227,5.227,0,0,1-.184-1.078l-.053.03h0c-.378.259.218,2.016.856,2.214a6.171,6.171,0,0,1-.535-.875c.1.077.5.651.7.851a7.249,7.249,0,0,1-.382-1.067l0-.007a2.027,2.027,0,0,0,1.034,1.009c.382-.382-.63-3.091-.979-2.57Zm.147,9.022-.111-.074a2.8,2.8,0,0,1-.288.7,8.27,8.27,0,0,1-.913,1.872c.408-.136,1.206-2.021,1.338-2.489l-.025-.012ZM594.866,32.143a4.645,4.645,0,0,1-6.6-.11,10.866,10.866,0,0,1-1.477-1.149c2.456,3.566,6.007,3.77,8.977.826l.362-.785a10.008,10.008,0,0,1-1.264,1.217Zm1.559-3.087a9.623,9.623,0,0,1-4.06,3.29,3.5,3.5,0,0,1-1.756.387c2.237.507,4.284-1.46,5.584-2.974l.445-.963-.214.26Zm-3.165,5.024c-4.048,1.159-7.069-1.828-8.081-5.579-.349-.519-.67-1.049-.963-1.595.473,2.661,2.017,5.845,4.574,7.069a5.075,5.075,0,0,0,5.1-.119c-.217.086-.414.149-.634.222Zm13.322-1a9.4,9.4,0,0,0-3.249-3.848,18.549,18.549,0,0,0-6.69-2.8l-.149.794c3.963.561,8.4,2.464,10.186,6.287.478,1.2.053-.028-.1-.432Zm-3.463-2.252c.264.192.524.466.768.635a14.184,14.184,0,0,0-7.471-3.826l-.059.527A15.105,15.105,0,0,1,603.118,30.827Zm2.034,4.012a11.315,11.315,0,0,0-1.024-1.753c-.671-.074-1.148-.81-1.5-.91,4.547,4.854,3.611,10.486.156,15.927-.521.8-1.1,1.555-1.616,2.353l-.227.608c.382-.6.774-1.147,1.194-1.723,2.81-3.811,5.138-8.689,3.436-13.457a11.119,11.119,0,0,0-.416-1.045Zm-5.5,16.23c.6-1.19,1.428-2.222,2.123-3.354.1-.281.151-.521.214-.778-.634,1.219-1.536,2.325-2.182,3.535l-.235.754.081-.156Zm.966-2.706c.573-.885,1-1.647,1.48-2.568l.078-.814a26.222,26.222,0,0,1-2.112,3.925l-.223.65.778-1.193Zm.346-1.783a26.044,26.044,0,0,0,1.234-2.851c-.017-.293-.048-.585-.075-.872a16.382,16.382,0,0,1-1.509,3.929l-.123.635c.157-.276.33-.559.474-.842Zm.091,3.272.414-.868c-.683,1.009-1.983,2.858-2.112,4.1A13.369,13.369,0,0,1,601.056,49.852Zm-2.643,2.328a5.515,5.515,0,0,0-.464,2.153,11.487,11.487,0,0,1,1.139-3.426l.12-.523A13.107,13.107,0,0,0,598.413,52.18Zm1.075-3.143.141-.536c-.556.93-1.945,3.264-1.881,4.319A14.676,14.676,0,0,1,599.488,49.037Zm-18.81,10.095-.057-.066a7.628,7.628,0,0,0-.361,2.246,5.438,5.438,0,0,1,.169-.91A8.151,8.151,0,0,1,580.678,59.131Zm9.36-5.97c-.429.287-.992.193-1.416.569a13.376,13.376,0,0,1,2.225-.6A4.347,4.347,0,0,1,590.038,53.161Zm-8.079,3.753a3.294,3.294,0,0,0-.712,1.871,2.233,2.233,0,0,0,1.167-.86h.005c-.153.276-.289.585-.458.844.251-.135.528-.74.633-.81-.132.325-.314.766-.473,1.077.206-.186.667-.847.694-.865a3.554,3.554,0,0,1-.534.971l.073.042a9.217,9.217,0,0,0,.687-.811,3.816,3.816,0,0,1-.269.571c.189-.177.26-.326.156-.028-.12.34-.3.645-.4.99-.528,1.929-.871,4.455.028,6.364a2.433,2.433,0,0,0,.089-1.256c-.217-4.3,1.1-7.916,5.258-9.764a13.391,13.391,0,0,1,5.077-1.329l-.09-.044a12.639,12.639,0,0,0-6.8,2.18,12.7,12.7,0,0,1,6.8-2.4,12.727,12.727,0,0,0-4.04.687,12.035,12.035,0,0,0-3,1.521,13.088,13.088,0,0,1,7.2-2.488,1.218,1.218,0,0,0-.565-.012,13.125,13.125,0,0,0-6.87,2.307,13.45,13.45,0,0,1,7.274-2.551l.123-.055a16.865,16.865,0,0,0-4.69.88,2.468,2.468,0,0,1-.955.421,2.13,2.13,0,0,0,.856-.916,1.809,1.809,0,0,1-.254-.156,3.414,3.414,0,0,1-.658.248,2.287,2.287,0,0,0,.333-.5,7.744,7.744,0,0,1-1.157.785l-.007,0a2.539,2.539,0,0,0,.991-1.2c.032-.133-.026-.17-.012-.153a4.864,4.864,0,0,0-2.982,1.881,3.172,3.172,0,0,0,1.777-.386h0c-.358.219-.721.478-1.094.663.314-.058,1.136-.386,1.238-.388a8.05,8.05,0,0,0-1.1.62c.292-.059.995-.338,1.119-.346a5.327,5.327,0,0,1-1.233.546l.016.055a3.368,3.368,0,0,0,.406-.067,8.374,8.374,0,0,0,.836-.263,4.655,4.655,0,0,1-1.111.487c.8-.127,1.371-.4.255.2-.631.338-.938.386-1.38,1.089a6.728,6.728,0,0,1-.663.95,5.394,5.394,0,0,0,.133-.774h-.045a2.969,2.969,0,0,1-.391.909s.17-.675.18-.844a2.435,2.435,0,0,1-.213.242,4.8,4.8,0,0,1-.313.616,2.449,2.449,0,0,0,.128-.9,8.085,8.085,0,0,1-.53,1.029c-.024-.186.392-.789.151-1.379-.1-.247-.618.4-.692.493Zm-.827-.88a2.079,2.079,0,0,1-.114.276,2.438,2.438,0,0,0,1.145-1.678c-.112.092-.421.622-.564.806,0-.086.377-.667.358-1.015a6.96,6.96,0,0,1-.547.848h0c.2-.328.554-1.71-.149-1.1-.351.316-1.256,1.513-1.127,1.941.025.087.21.007.316-.041a2.044,2.044,0,0,0,.876-.675h0c-.177.262-.33.55-.513.8a3.233,3.233,0,0,0,.321-.17Zm1.519-1.7.009.02a5.823,5.823,0,0,1,.864-.711,5.7,5.7,0,0,0-.81.855.409.409,0,0,1,.009.144,5.135,5.135,0,0,1,.978-.839,5.733,5.733,0,0,0-.935,1.053,3.453,3.453,0,0,1,.876-.592,8.836,8.836,0,0,1-1.3,1.655.876.876,0,0,1,.251-.025,5.785,5.785,0,0,1,.79-.785,5.2,5.2,0,0,0-.649.807l.123.049a5.879,5.879,0,0,1,.72-.709,7.358,7.358,0,0,0-.622.783c.044.044.048.036.111.063a5.438,5.438,0,0,1,.705-.7,5.755,5.755,0,0,0-.588.746l.163.063a5.368,5.368,0,0,1,.624-.6,5.815,5.815,0,0,0-.513.634c.164.042.237.015.3-.053a9.2,9.2,0,0,1,.842-.822c.127-.108-.18-.458-.26-.524-.758-.09-.658-.709-.255-1.2a4.245,4.245,0,0,1,.988-.819,7.972,7.972,0,0,0-.889.524,6.041,6.041,0,0,1,1.688-1.069,6.046,6.046,0,0,0-1.889.926,5.713,5.713,0,0,1,1.288-.888c-.649-.065-2.28,1.525-2.617,2.011Zm5.274-2.066a.377.377,0,0,1,.049.312c.19.168.535.585.8.493.3-.1.823-.177,1.007-.416-.182.059-.954.4-.268.03.287-.161.369-.1.46-.431a5.216,5.216,0,0,0-1.032.4,4.678,4.678,0,0,1,1.068-.567l.013-.178a5.466,5.466,0,0,0-1.377.527,5.634,5.634,0,0,1,1.361-.708L590,51.659l-.089-.062a5.562,5.562,0,0,0-1.563.614,6.076,6.076,0,0,1,1.424-.757.364.364,0,0,1-.063-.137,5.61,5.61,0,0,0-1.657.675,5.994,5.994,0,0,1,1.659-.869l.024-.067-.2.062c-.653.325-1.313.625-1.976.926a.583.583,0,0,1,.366.221Zm-2.036-.346a4.421,4.421,0,0,0,1.881-.88c-.976.579-.361.2.081-.215-.41.106-.264.074-.044-.176a8.114,8.114,0,0,1-.913.524c.009-.016.287-.2.565-.441a7.587,7.587,0,0,1-.691.326,2.683,2.683,0,0,0,1.1-1.065c.05-.127,0-.169.011-.147A5.126,5.126,0,0,0,584.7,51.4a3.233,3.233,0,0,0,1.723-.182c-.015.033-1.016.491-1.1.522a9.3,9.3,0,0,0,1.329-.367c-.4.225-.8.371-1.182.579a1.962,1.962,0,0,0,.415-.038Zm2.671-1.466,0,.034a11.018,11.018,0,0,1,3.214-.781l-.1-.1a17.485,17.485,0,0,0-3.12.848Zm3.718-.909a5.032,5.032,0,0,0,2.748.128,7.06,7.06,0,0,1-.96,0c.078-.036.9-.116,1.156-.189-.287-.044-.355-.024-.05-.112a7.653,7.653,0,0,1-1.267.021l1.063-.149c-.268.018-.54.02-.808.024l.005-.011a3.791,3.791,0,0,0,1.657-.506c.133-.1.116-.155.114-.137a4.805,4.805,0,0,0-1.844-.279,5.291,5.291,0,0,0-2.149.382c0-.03,0-.021-.005,0a3.3,3.3,0,0,0,1.814.555v0c-.484.007-1,.046-1.477.011l.383.147c.439.1.864.145.884.157-.416-.005-.864-.065-1.263-.044Zm-3.848,1.534-.108.115,1.938-.579c1.214-.567,3.748-.375,5.082-.211l.009-.015A12.54,12.54,0,0,0,588.43,51.077Zm3.267-1.149.42-.037c-.622-.276-2.887.367-3.546.635a.69.69,0,0,1,.026.19,10.345,10.345,0,0,1,3.1-.79Zm-1.313,1.334c.9.823,3.259.724,4.227.049.156-.111.136-.173.133-.159-.563-.561-4.266-.259-4.362.111Zm1.934,1.618-.206.052c.621-.074,1.241-.112,1.864-.133l.037-.091a15.5,15.5,0,0,1-2.427.008,16.949,16.949,0,0,0,2.49-.168l.025-.062a14.374,14.374,0,0,1-2.5.015,16.794,16.794,0,0,0,2.583-.185l.026-.054a14.819,14.819,0,0,1-2.6.026,16.281,16.281,0,0,0,2.5-.181l-.234-.032a13.853,13.853,0,0,1-2.258,0,9.494,9.494,0,0,0,2.688-.251,13.749,13.749,0,0,1-2.554.049,7.661,7.661,0,0,1-1.06-.018c.152.065.676.238.667.24l.147.011-.9.044-.025.128c.388.053.746.063.765.071-.264.018-.526.034-.791.029l-.048.143c.355.053.674.065.691.071-.246.017-.485.032-.731.026l-.074.143a9.761,9.761,0,0,0,1.914.118ZM591.1,10.487l-.174.177.148-.177Zm-.207,0c-3.128,3.71-6.03,8.443-6.352,13.083a17.867,17.867,0,0,1-.37-1.949c.687-3.823,2.957-7.764,5.644-11.134Zm-1.976,0a34.758,34.758,0,0,0-3.4,4.847,25.8,25.8,0,0,1,2.935-4.847Zm-1.35,0a34.924,34.924,0,0,0-3.494,5.356,27.518,27.518,0,0,1,2.991-5.356Zm-1.308,0c-3.928,5.261-6.174,11.284-5.2,18.234-.094-.308-.185-.616-.255-.922-.889-6.315,1.07-12.224,4.527-17.312h.931Zm16,16.606a13.192,13.192,0,0,1,1.614,1.215,1.854,1.854,0,0,1-.141-.392C603.243,27.626,602.75,27.348,602.249,27.093Zm-1.128-.777a26.494,26.494,0,0,1,2.587,1.518.9.9,0,0,1,0-.326,19.275,19.275,0,0,0-2.165-1.119,3.463,3.463,0,0,1-.421-.071Zm1.573.2-.631-.074c.571.31,1.118.628,1.661.986a.683.683,0,0,1,.137-.275C603.513,26.951,603.117,26.731,602.694,26.516Zm-.02-.605c.548.3,1.071.63,1.5.921l.124-.166a19.506,19.506,0,0,0-2.028-1.052l-.074.049.472.248Zm-5.151-4.539-.008.024a10.6,10.6,0,0,1,7.082,4.057l.538.346.07-.016a10.984,10.984,0,0,0-7.684-4.411Zm6.24,3.584.733.433a12.023,12.023,0,0,0-1.324-1.3.774.774,0,0,1,.152.417l.44.445Zm.811-2.071-.008,0a6.078,6.078,0,0,1,1.124.988,8.089,8.089,0,0,0-.879-.657l-.4-.238-.059.036a6.1,6.1,0,0,1,1.141,1,7.9,7.9,0,0,0-.843-.63l-.458-.263-.047.032a5.78,5.78,0,0,1,1.148,1c-.016-.009-.209-.181-.472-.377a10.126,10.126,0,0,1,1.628,2.071l.09-.085a5,5,0,0,0-.844-1.152,4.831,4.831,0,0,1,.984,1.02c.02-.02.024-.055.036-.082a5.25,5.25,0,0,0-.83-1.089,4.808,4.808,0,0,1,.927.933l.067-.061a4.362,4.362,0,0,0-2.3-2.457ZM597.7,20.85l-.009.025a11.358,11.358,0,0,1,7.892,4.872,2.414,2.414,0,0,1,.39.034,12.829,12.829,0,0,0-5.792-4.368,7.447,7.447,0,0,0-2.481-.564Zm1.838-.247a6.466,6.466,0,0,0-.992-.322,4.809,4.809,0,0,0-.575-.092l-.1.233a8.858,8.858,0,0,1,2.472.5c.07-.165.145-.312.21-.435.219-.419.219-.419-.007-.542a14.583,14.583,0,0,0-2.077-.81l-.052.1a6.46,6.46,0,0,1,1.641.626,7.463,7.463,0,0,0-1.237-.4l-.474-.087-.03.058a6.149,6.149,0,0,1,1.61.616,7.274,7.274,0,0,0-1.176-.382c-.173-.038-.346-.067-.507-.089l-.028.054a5.772,5.772,0,0,1,1.579.6,6.858,6.858,0,0,0-1.114-.362c-.185-.041-.37-.071-.538-.092l-.024.049a5.441,5.441,0,0,1,1.546.591,6.627,6.627,0,0,0-1.053-.342,5.136,5.136,0,0,0-.559-.094l-.018.045a5.125,5.125,0,0,1,1.5.577Zm.8,1.831c.318.106.618.211.927.345a8.72,8.72,0,0,0-3.828-1.143l-.008.022a8.2,8.2,0,0,1,2.909.774Zm-2.359,2.522a6.53,6.53,0,0,1-1.313-.536l0,.009a7.07,7.07,0,0,0,4.36,1.37,7.122,7.122,0,0,1-1.008-.314,10.886,10.886,0,0,0,1.091.178l.178.013c-.433-.161-.852-.343-1.295-.507.267-.021,1.488.382,1.811.165a8.546,8.546,0,0,1-2.02-.534l.694.147c-.39-.1-.782-.214-1.164-.343l0,0c.7.2,2.966.613,3.444.026l-.011.012c.181-.583-1.914-1.392-2.359-1.543a8.9,8.9,0,0,0-3.231-.531l-.19.649a4.723,4.723,0,0,0,1.838,1.213l0,.005a14.607,14.607,0,0,1-1.651-.639,4.215,4.215,0,0,0,.424.281c.469.28,1.028.519,1.048.536a7.537,7.537,0,0,1-1.812-.773l-.005.022c.14.126.622.473.618.472.419.244.856.432.875.449a7.424,7.424,0,0,1-1.559-.647l-.019.074a3.726,3.726,0,0,0,.351.256c.416.268.894.474.912.493Zm11.067,3.79c-.052-.68-3.583-3.609-3.97-2.1a2.475,2.475,0,0,0,.9,1.8v0a8.768,8.768,0,0,1-.99-.914c.112.2.7.982.706,1a6.378,6.378,0,0,1-1.069-1.18,2.567,2.567,0,0,0,.152.48c.234.377.524.712.53.735-.4-.371-.705-.744-1.075-1.126-.063.137.671,1.061.692,1.167a5.549,5.549,0,0,1-.75-.8c.128,1.019,1.987,2.4,2.906,2.4a6.818,6.818,0,0,1-.913-.6c.071.009.882.431,1.159.518a5.722,5.722,0,0,0-1.056-.824c.029,0,.494.281,1,.48.189.075.485.222.683.155a7.342,7.342,0,0,1-1.724-1.037c.122.028.953.49,1.2.6a9.543,9.543,0,0,1-1.178-.822v0a4.362,4.362,0,0,0,2.453.917c.565-.025.6-.354.35-.839Zm1.538.032a.643.643,0,0,1-.156.079,8.491,8.491,0,0,1,.645.816c-.3-.217-.531-.8-.938-.772a6.209,6.209,0,0,1,.713.889,7.527,7.527,0,0,0-.782-.778.484.484,0,0,0-.308-.16l.005.022a5.8,5.8,0,0,1,.86,1.034,7.33,7.33,0,0,0-.752-.749l-.081-.063-.005.141a5.337,5.337,0,0,1,.614.786,7.987,7.987,0,0,0-.642-.649l-.054.133a5.8,5.8,0,0,1,.47.631c-.018-.012-.234-.275-.524-.542a.89.89,0,0,1-.181.178,3.626,3.626,0,0,1,1.27,1.9l.02.009a4.238,4.238,0,0,0-.415-1.28,4.192,4.192,0,0,1,.617,1.259l.059-.034a4.414,4.414,0,0,0-.441-1.328,4.33,4.33,0,0,1,.62,1.235l.07-.034a4.761,4.761,0,0,0-.454-1.3,4.465,4.465,0,0,1,.625,1.223l.077-.034a5.034,5.034,0,0,0-.466-1.292,4.557,4.557,0,0,1,.63,1.218l.085-.04a5.14,5.14,0,0,0-.48-1.283,4.74,4.74,0,0,1,.634,1.2c.149-.083.136-.131.081-.27a10.138,10.138,0,0,0-1.414-2.151Zm-.5,3.3c-.215-.005-.406.31-.481.472a1.977,1.977,0,0,0-.14,1.305l-.007,0a4.015,4.015,0,0,1-.248-1.48l-.045.015h0A1.959,1.959,0,0,0,609,33.3l0-.007c.02.267.061.487.055.5a6.371,6.371,0,0,0-.369-1.03c-.024.2.037.947.036.95a3.554,3.554,0,0,1-.231-.96c-.259.429-.036.723-.1.89l-.07-.2a2.82,2.82,0,0,0,.766,1.942,3.371,3.371,0,0,1-.256-.725c.135.1.449.918.687.931-.129-.384-.28-.736-.39-1.128.11.085.538,1.1.913,1.165a4.39,4.39,0,0,1-.668-1.5,9.381,9.381,0,0,0,.487.855,8.631,8.631,0,0,1-.321-.843h.005a2.7,2.7,0,0,0,1.328,1.506.607.607,0,0,0,.334.048l.207-.162c.594-.908-.522-3.471-1.334-3.46ZM609.2,36c.038.349.056.675.067,1.024.05.236.087.466.125.7a12.73,12.73,0,0,0,.008-1.68Zm1.881,2.2a2.983,2.983,0,0,1-.168,1.248,3.519,3.519,0,0,0,.036-.9l-.038-.246c-.144.367-.127.708-.263,1.114-.037-.149.229-.995-.112-.2a26.856,26.856,0,0,1-1.2,2.513l-.083.431.042.008a4.516,4.516,0,0,0,.641-1.2,4.04,4.04,0,0,1-.44,1.227l.078.012A4.742,4.742,0,0,0,610.2,41a4.109,4.109,0,0,1-.436,1.239l.082.012a4.886,4.886,0,0,0,.62-1.219,4.287,4.287,0,0,1-.431,1.244l.094.008a5.2,5.2,0,0,0,.6-1.221,4.412,4.412,0,0,1-.406,1.213c.5-.108,1.1-2.739,1.172-3.218a3.172,3.172,0,0,0-.041-.742l-.1-.032a3.227,3.227,0,0,1-.176,1.2,3.75,3.75,0,0,0,.038-.954l-.05-.306Zm-2.723,6.831a3.3,3.3,0,0,1-.655,1.316c.017-.1.3-.618.367-.881a19.29,19.29,0,0,1-1.365,2.313,6.129,6.129,0,0,0,.816-.84,4.525,4.525,0,0,1-.731.956l.049.015a.548.548,0,0,0,.157-.108,10.972,10.972,0,0,0,1.436-1.764,3.2,3.2,0,0,0,.221-.753l-.073-.062a3.566,3.566,0,0,1-.634,1.215,4.113,4.113,0,0,0,.38-.9,3.069,3.069,0,0,0,.085-.46l-.053-.045Z" transform="translate(-577.526 -0.018)" fill="#00331c"/>
        </g>
      </g>
    </g>
  </g>
</svg>
